<?xml version="1.0" encoding="UTF-8"?>
<!-- <svg width="151px" height="34px" viewBox="0 0 151 34" version="1.1" xmlns="http://www.w3.org/2000/svg" xmlns:xlink="http://www.w3.org/1999/xlink"> -->
<svg width="180px" height="34px" version="1.1" xmlns="http://www.w3.org/2000/svg" xmlns:xlink="http://www.w3.org/1999/xlink">
    <!-- Generator: Sketch 50.2 (55047) - http://www.bohemiancoding.com/sketch -->
    <title>Group 4</title>
    <desc>Created with Sketch.</desc>
    <defs></defs>
    <g id="Page-1" stroke="none" stroke-width="1" fill="none" fill-rule="evenodd">
        <g id="Artboard" transform="translate(-65.000000, -103.000000)" fill="#000000">
            <g id="Group-4" transform="translate(65.591667, 103.720044)">
                <polygon id="Path-2-Copy" points="0.0391160101 13.0474334 0.0391160101 0.0615885483 16.8182552 0.0615885483 16.8182552 6.09551566 6.03112189 6.09551566 6.03112189 13.0474334"></polygon>
                <polygon id="Path-4-Copy" points="20.778114 13.0546599 20.778114 0.0788836428 37.5417692 0.0788836428 37.5417692 6.08493889 26.8018487 6.08493889 26.8018487 13.0528688"></polygon>
                <polygon id="Path-5-Copy" points="20.7847752 16.5635673 26.8022436 16.5635673 26.8022436 23.5241754 37.5198758 23.5241754 37.5198758 29.5173292 20.7847752 29.5173292"></polygon>
                <polygon id="Path-6-Copy" points="41.5771429 29.5463122 41.5771429 16.5546814 47.5812503 16.5546814 47.5812503 23.5286151 58.3239797 23.5286151 58.3239797 29.538342"></polygon>
                <polygon id="Path-3-Copy" points="0.0322629991 23.5257742 10.7589329 23.5257742 10.7589329 16.5290443 16.8014517 16.5290443 16.8014517 29.5376093 0.0322629991 29.5376093"></polygon>
                <path d="M76.4273013,5.99329412 L74.4883234,6.25431037 C74.2832392,5.3593975 73.4629024,4.81872097 72.3069733,4.81872097 C71.3747724,4.81872097 70.5917236,5.1543133 70.5917236,5.7695659 C70.5917236,6.34753046 71.1510441,6.66447877 72.008669,6.85091895 L73.090022,7.07464717 C74.9544238,7.48481557 76.5391654,8.00684807 76.5391654,9.79667381 C76.5391654,11.7356517 74.7120516,12.7983607 72.5493455,12.7983607 C70.1442672,12.7983607 68.5968137,11.4373474 68.4103735,9.77802979 L70.4239274,9.4797255 C70.5917236,10.4678585 71.3001963,11.2322632 72.6239216,11.2322632 C73.7612067,11.2322632 74.5069674,10.8220948 74.5069674,10.0763341 C74.5069674,9.33057336 73.7052746,9.06955711 72.7544297,8.86447291 L71.5425685,8.60345665 C69.939183,8.26786433 68.6341017,7.61532369 68.6341017,5.90007403 C68.6341017,4.25940043 70.3679954,3.25262345 72.4561254,3.25262345 C74.3764593,3.25262345 76.0730649,4.20346838 76.4273013,5.99329412 Z M82.2255909,12.7983607 C79.186616,12.7983607 77.6578065,10.6915867 77.6578065,8.02549209 C77.6578065,5.21024536 79.4662762,3.25262345 82.1696589,3.25262345 C85.0781257,3.25262345 86.7747313,5.47126161 86.6069352,8.64074469 L79.7459365,8.64074469 C79.7832245,10.1509102 80.7900015,11.1390431 82.1883029,11.1390431 C83.4933841,11.1390431 84.1459248,10.5237905 84.4628731,9.70345372 L86.457783,9.96446998 C86.0289706,11.3254833 84.7052453,12.7983607 82.2255909,12.7983607 Z M82.1883029,4.83736499 C80.9764417,4.83736499 79.8205126,5.52719366 79.7459365,7.1119352 L84.5001611,7.1119352 C84.4442291,5.71363384 83.4374521,4.83736499 82.1883029,4.83736499 Z M90.3357388,3.43906363 L90.3357388,4.57634874 C90.8577713,3.75601194 91.8459043,3.25262345 93.1509855,3.25262345 C94.3255587,3.25262345 95.2018275,3.64414783 95.72386,4.38990856 C96.1153844,4.96787312 96.3204686,5.75092188 96.3204686,6.92549502 L96.3204686,12.5746325 L94.2509826,12.5746325 L94.2509826,7.44752753 C94.2509826,6.47803859 94.1577625,5.80685393 93.7475941,5.39668554 C93.4865779,5.13566928 93.0577654,4.96787312 92.4984449,4.96787312 C90.9137034,4.96787312 90.3357388,6.16109028 90.3357388,7.83905191 L90.3357388,12.5746325 L88.2662528,12.5746325 L88.2662528,3.43906363 L90.3357388,3.43906363 Z M105.828918,5.99329412 L103.88994,6.25431037 C103.684856,5.3593975 102.864519,4.81872097 101.70859,4.81872097 C100.776389,4.81872097 99.9933402,5.1543133 99.9933402,5.7695659 C99.9933402,6.34753046 100.552661,6.66447877 101.410286,6.85091895 L102.491639,7.07464717 C104.35604,7.48481557 105.940782,8.00684807 105.940782,9.79667381 C105.940782,11.7356517 104.113668,12.7983607 101.950962,12.7983607 C99.5458837,12.7983607 97.9984302,11.4373474 97.8119901,9.77802979 L99.825544,9.4797255 C99.9933402,10.4678585 100.701813,11.2322632 102.025538,11.2322632 C103.162823,11.2322632 103.908584,10.8220948 103.908584,10.0763341 C103.908584,9.33057336 103.106891,9.06955711 102.156046,8.86447291 L100.944185,8.60345665 C99.3407995,8.26786433 98.0357183,7.61532369 98.0357183,5.90007403 C98.0357183,4.25940043 99.769612,3.25262345 101.857742,3.25262345 C103.778076,3.25262345 105.474682,4.20346838 105.828918,5.99329412 Z M111.627207,12.7983607 C108.588233,12.7983607 107.059423,10.6915867 107.059423,8.02549209 C107.059423,5.21024536 108.867893,3.25262345 111.571275,3.25262345 C114.479742,3.25262345 116.176348,5.47126161 116.008552,8.64074469 L109.147553,8.64074469 C109.184841,10.1509102 110.191618,11.1390431 111.589919,11.1390431 C112.895001,11.1390431 113.547541,10.5237905 113.86449,9.70345372 L115.8594,9.96446998 C115.430587,11.3254833 114.106862,12.7983607 111.627207,12.7983607 Z M111.589919,4.83736499 C110.378058,4.83736499 109.222129,5.52719366 109.147553,7.1119352 L113.901778,7.1119352 C113.845846,5.71363384 112.839069,4.83736499 111.589919,4.83736499 Z M119.364475,6.27295439 L117.444141,6.21702233 C117.574649,4.40855258 119.047527,3.21533542 121.452605,3.21533542 C124.100056,3.21533542 125.237341,4.16618034 125.237341,6.72041082 C125.237341,7.3170194 125.200053,8.84582889 125.200053,9.34921738 C125.200053,10.5237905 125.255985,11.4746354 125.386493,12.5746325 L123.447515,12.5746325 L123.391583,11.4746354 C122.813618,12.3322603 121.918705,12.7983607 120.427184,12.7983607 C118.32041,12.7983607 117.127193,11.3814154 117.127193,9.81531783 C117.127193,8.92040496 117.537361,8.24922031 118.13397,7.83905191 C118.954307,7.27973137 120.072948,7.05600315 121.471249,6.88820699 L123.186499,6.7017668 L123.186499,6.3848185 C123.186499,5.13566928 122.440738,4.76278892 121.340741,4.76278892 C120.166168,4.76278892 119.457695,5.30346545 119.364475,6.27295439 Z M123.261075,8.77125282 L123.261075,8.21193227 L121.527181,8.39837245 C119.961084,8.56616862 119.271255,8.99498103 119.271255,9.83396185 C119.271255,10.6170106 119.886508,11.1763312 120.87464,11.1763312 C122.086502,11.1763312 123.261075,10.4865025 123.261075,8.77125282 Z M127.362759,12.5746325 L127.362759,0.19500448 L129.432245,0.19500448 L129.432245,4.52041668 C130.010209,3.70007989 130.867834,3.25262345 132.098339,3.25262345 C134.37291,3.25262345 136.013583,5.04244919 136.013583,8.04413611 C136.013583,10.971247 134.27969,12.7983607 131.949187,12.7983607 C130.75597,12.7983607 129.898345,12.2949722 129.394957,11.6424316 L129.357669,12.5746325 L127.362759,12.5746325 Z M131.669527,4.91194107 C130.308514,4.91194107 129.339025,5.99329412 129.339025,8.04413611 C129.339025,10.0576901 130.28987,11.1390431 131.669527,11.1390431 C133.105116,11.1390431 133.888165,9.90853792 133.888165,8.02549209 C133.888165,6.14244626 133.12376,4.91194107 131.669527,4.91194107 Z M139.779675,0.19500448 L139.779675,12.5746325 L137.710189,12.5746325 L137.710189,0.19500448 L139.779675,0.19500448 Z M146.025421,12.7983607 C142.986446,12.7983607 141.457636,10.6915867 141.457636,8.02549209 C141.457636,5.21024536 143.266106,3.25262345 145.969489,3.25262345 C148.877956,3.25262345 150.574561,5.47126161 150.406765,8.64074469 L143.545767,8.64074469 C143.583055,10.1509102 144.589832,11.1390431 145.988133,11.1390431 C147.293214,11.1390431 147.945755,10.5237905 148.262703,9.70345372 L150.257613,9.96446998 C149.828801,11.3254833 148.505075,12.7983607 146.025421,12.7983607 Z M145.988133,4.83736499 C144.776272,4.83736499 143.620343,5.52719366 143.545767,7.1119352 L148.299991,7.1119352 C148.244059,5.71363384 147.237282,4.83736499 145.988133,4.83736499 Z" id="senseable-copy"></path>
                <path d="M72.9781579,19.967948 C75.0476439,19.967948 76.6883175,21.1798092 77.0798419,23.1001431 L75.084932,23.3798034 C74.8984918,22.3916704 74.1527311,21.6272657 72.9222259,21.6272657 C71.5798566,21.6272657 70.5730796,22.6526866 70.5730796,24.7221727 C70.5730796,26.8103027 71.5985006,27.8543677 72.9222259,27.8543677 C73.9662909,27.8543677 74.8798478,27.3323352 75.140864,26.083186 L77.154418,26.3442022 C76.6883175,28.3764002 74.9357798,29.5136853 72.8849378,29.5136853 C70.0696911,29.5136853 68.4476615,27.5187754 68.4476615,24.7408167 C68.4476615,21.962858 70.1069791,19.967948 72.9781579,19.967948 Z M78.7205155,20.1543882 L80.7900015,20.1543882 L80.7900015,29.2899571 L78.7205155,29.2899571 L78.7205155,20.1543882 Z M78.7205155,16.9103291 L80.7900015,16.9103291 L80.7900015,18.9984591 L78.7205155,18.9984591 L78.7205155,16.9103291 Z M83.38152,20.1543882 L83.38152,17.5069376 L85.451006,17.5069376 L85.451006,20.1543882 L87.3154079,20.1543882 L87.3154079,21.7391298 L85.451006,21.7391298 L85.451006,26.4747104 C85.451006,27.4255553 85.6747343,27.6492835 86.5510031,27.6492835 L87.2967638,27.6492835 L87.2967638,29.2899571 L85.7865984,29.2899571 C83.7916884,29.2899571 83.38152,28.7492806 83.38152,26.8475907 L83.38152,21.7391298 L82.0018627,21.7391298 L82.0018627,20.1543882 L83.38152,20.1543882 Z M89.478114,32.5153722 L88.545913,32.5153722 L88.545913,30.7814785 L89.3289618,30.7814785 C90.2238747,30.7814785 90.596755,30.6696144 91.0255675,29.4577533 L91.1187876,29.234025 L87.7442203,20.1543882 L90.0001465,20.1543882 L92.1069205,26.6611505 L94.2323386,20.1543882 L96.3391126,20.1543882 L93.0577654,29.2713131 C92.1814966,31.6763914 91.566244,32.5153722 89.478114,32.5153722 Z M103.554348,16.9103291 L103.554348,29.2899571 L101.484862,29.2899571 L101.484862,16.9103291 L103.554348,16.9103291 Z M107.544168,22.988279 L105.623834,22.9323469 C105.754342,21.1238772 107.227219,19.93066 109.632298,19.93066 C112.279748,19.93066 113.417033,20.8815049 113.417033,23.4357354 C113.417033,24.032344 113.379745,25.5611535 113.379745,26.064542 C113.379745,27.2391151 113.435677,28.18996 113.566185,29.2899571 L111.627207,29.2899571 L111.571275,28.18996 C110.993311,29.0475849 110.098398,29.5136853 108.606877,29.5136853 C106.500103,29.5136853 105.306885,28.0967399 105.306885,26.5306424 C105.306885,25.6357295 105.717054,24.9645449 106.313662,24.5543765 C107.133999,23.995056 108.25264,23.7713277 109.650942,23.6035316 L111.366191,23.4170914 L111.366191,23.1001431 C111.366191,21.8509939 110.620431,21.4781135 109.520433,21.4781135 C108.34586,21.4781135 107.637388,22.01879 107.544168,22.988279 Z M111.440767,25.4865774 L111.440767,24.9272569 L109.706874,25.113697 C108.140776,25.2814932 107.450947,25.7103056 107.450947,26.5492864 C107.450947,27.3323352 108.0662,27.8916557 109.054333,27.8916557 C110.266194,27.8916557 111.440767,27.2018271 111.440767,25.4865774 Z M115.542451,29.2899571 L115.542451,16.9103291 L117.611937,16.9103291 L117.611937,21.2357413 C118.189902,20.4154045 119.047527,19.967948 120.278032,19.967948 C122.552602,19.967948 124.193276,21.7577738 124.193276,24.7594607 C124.193276,27.6865715 122.459382,29.5136853 120.12888,29.5136853 C118.935663,29.5136853 118.078038,29.0102968 117.574649,28.3577562 L117.537361,29.2899571 L115.542451,29.2899571 Z M119.849219,21.6272657 C118.488206,21.6272657 117.518717,22.7086187 117.518717,24.7594607 C117.518717,26.7730147 118.469562,27.8543677 119.849219,27.8543677 C121.284809,27.8543677 122.067858,26.6238625 122.067858,24.7408167 C122.067858,22.8577708 121.303453,21.6272657 119.849219,21.6272657 Z M127.642419,29.2899571 L125.293273,29.2899571 L125.293273,26.9408108 L127.642419,26.9408108 L127.642419,29.2899571 Z" id="city-lab.-copy"></path>
            </g>
        </g>
    </g>
</svg>