%TF.GenerationSoftware,KiCad,Pcbnew,9.0.0*%
%TF.CreationDate,2025-03-07T13:19:33+01:00*%
%TF.ProjectId,Flatburn_V4,466c6174-6275-4726-9e5f-56342e6b6963,1*%
%TF.SameCoordinates,Original*%
%TF.FileFunction,Paste,Top*%
%TF.FilePolarity,Positive*%
%FSLAX46Y46*%
G04 Gerber Fmt 4.6, Leading zero omitted, Abs format (unit mm)*
G04 Created by KiCad (PCBNEW 9.0.0) date 2025-03-07 13:19:33*
%MOMM*%
%LPD*%
G01*
G04 APERTURE LIST*
G04 Aperture macros list*
%AMRoundRect*
0 Rectangle with rounded corners*
0 $1 Rounding radius*
0 $2 $3 $4 $5 $6 $7 $8 $9 X,Y pos of 4 corners*
0 Add a 4 corners polygon primitive as box body*
4,1,4,$2,$3,$4,$5,$6,$7,$8,$9,$2,$3,0*
0 Add four circle primitives for the rounded corners*
1,1,$1+$1,$2,$3*
1,1,$1+$1,$4,$5*
1,1,$1+$1,$6,$7*
1,1,$1+$1,$8,$9*
0 Add four rect primitives between the rounded corners*
20,1,$1+$1,$2,$3,$4,$5,0*
20,1,$1+$1,$4,$5,$6,$7,0*
20,1,$1+$1,$6,$7,$8,$9,0*
20,1,$1+$1,$8,$9,$2,$3,0*%
%AMFreePoly0*
4,1,9,0.616500,0.298453,1.511850,0.298453,1.511850,-0.298447,0.616500,-0.298447,0.616500,-0.400047,-0.590000,-0.400047,-0.590000,0.400053,0.616500,0.400053,0.616500,0.298453,0.616500,0.298453,$1*%
%AMFreePoly1*
4,1,9,0.603250,0.298450,1.498600,0.298450,1.498600,-0.298450,0.603250,-0.298450,0.603250,-0.400050,-0.603250,-0.400050,-0.603250,0.400050,0.603250,0.400050,0.603250,0.298450,0.603250,0.298450,$1*%
%AMFreePoly2*
4,1,9,0.603250,0.298449,1.498600,0.298449,1.498600,-0.298451,0.603250,-0.298451,0.603250,-0.400001,-0.603250,-0.400001,-0.603250,0.400049,0.603250,0.400049,0.603250,0.298449,0.603250,0.298449,$1*%
%AMFreePoly3*
4,1,9,0.603250,-0.400050,-0.603250,-0.400050,-0.603250,-0.298450,-1.498600,-0.298450,-1.498600,0.298450,-0.603250,0.298450,-0.603250,0.400050,0.603250,0.400050,0.603250,-0.400050,0.603250,-0.400050,$1*%
%AMFreePoly4*
4,1,9,0.603250,-0.400001,-0.603250,-0.400001,-0.603250,-0.298450,-1.498600,-0.298450,-1.498600,0.298450,-0.603250,0.298450,-0.603250,0.400050,0.603250,0.400050,0.603250,-0.400001,0.603250,-0.400001,$1*%
G04 Aperture macros list end*
%ADD10C,0.000000*%
%ADD11C,0.010000*%
%ADD12C,0.100000*%
%ADD13RoundRect,0.150000X0.200000X-0.150000X0.200000X0.150000X-0.200000X0.150000X-0.200000X-0.150000X0*%
%ADD14RoundRect,0.140000X-0.170000X0.140000X-0.170000X-0.140000X0.170000X-0.140000X0.170000X0.140000X0*%
%ADD15RoundRect,0.225000X0.250000X-0.225000X0.250000X0.225000X-0.250000X0.225000X-0.250000X-0.225000X0*%
%ADD16RoundRect,0.135000X-0.135000X-0.185000X0.135000X-0.185000X0.135000X0.185000X-0.135000X0.185000X0*%
%ADD17RoundRect,0.150000X-0.587500X-0.150000X0.587500X-0.150000X0.587500X0.150000X-0.587500X0.150000X0*%
%ADD18RoundRect,0.218750X-0.381250X0.218750X-0.381250X-0.218750X0.381250X-0.218750X0.381250X0.218750X0*%
%ADD19RoundRect,0.225000X-0.225000X-0.250000X0.225000X-0.250000X0.225000X0.250000X-0.225000X0.250000X0*%
%ADD20RoundRect,0.200000X0.275000X-0.200000X0.275000X0.200000X-0.275000X0.200000X-0.275000X-0.200000X0*%
%ADD21RoundRect,0.135000X-0.185000X0.135000X-0.185000X-0.135000X0.185000X-0.135000X0.185000X0.135000X0*%
%ADD22RoundRect,0.250000X0.400000X0.450000X-0.400000X0.450000X-0.400000X-0.450000X0.400000X-0.450000X0*%
%ADD23RoundRect,0.140000X-0.140000X-0.170000X0.140000X-0.170000X0.140000X0.170000X-0.140000X0.170000X0*%
%ADD24RoundRect,0.250000X0.625000X-0.312500X0.625000X0.312500X-0.625000X0.312500X-0.625000X-0.312500X0*%
%ADD25RoundRect,0.140000X0.140000X0.170000X-0.140000X0.170000X-0.140000X-0.170000X0.140000X-0.170000X0*%
%ADD26RoundRect,0.135000X0.185000X-0.135000X0.185000X0.135000X-0.185000X0.135000X-0.185000X-0.135000X0*%
%ADD27RoundRect,0.250000X0.250000X0.475000X-0.250000X0.475000X-0.250000X-0.475000X0.250000X-0.475000X0*%
%ADD28RoundRect,0.225000X-0.250000X0.225000X-0.250000X-0.225000X0.250000X-0.225000X0.250000X0.225000X0*%
%ADD29RoundRect,0.140000X0.170000X-0.140000X0.170000X0.140000X-0.170000X0.140000X-0.170000X-0.140000X0*%
%ADD30RoundRect,0.250000X-0.625000X0.312500X-0.625000X-0.312500X0.625000X-0.312500X0.625000X0.312500X0*%
%ADD31R,0.400000X0.700000*%
%ADD32RoundRect,0.150000X0.587500X0.150000X-0.587500X0.150000X-0.587500X-0.150000X0.587500X-0.150000X0*%
%ADD33R,4.900000X2.500000*%
%ADD34R,0.199999X0.750000*%
%ADD35R,0.699998X0.199999*%
%ADD36R,0.200000X0.599999*%
%ADD37R,0.199996X0.700000*%
%ADD38R,0.700000X0.200000*%
%ADD39R,0.599999X0.200000*%
%ADD40R,0.699999X0.200000*%
%ADD41R,0.199999X0.699998*%
%ADD42R,0.200000X0.700001*%
%ADD43R,0.200000X0.650001*%
%ADD44R,0.200000X0.680001*%
%ADD45R,0.699998X0.200000*%
%ADD46R,0.199998X0.749998*%
%ADD47R,1.000000X0.200000*%
%ADD48R,0.950001X0.200000*%
%ADD49R,0.300000X0.700000*%
%ADD50R,0.250000X0.500000*%
%ADD51RoundRect,0.200000X-0.200000X-0.275000X0.200000X-0.275000X0.200000X0.275000X-0.200000X0.275000X0*%
%ADD52RoundRect,0.250000X0.475000X-0.250000X0.475000X0.250000X-0.475000X0.250000X-0.475000X-0.250000X0*%
%ADD53R,1.475000X0.450000*%
%ADD54R,0.405000X0.990000*%
%ADD55R,0.077000X0.250000*%
%ADD56R,0.405000X0.510000*%
%ADD57R,2.235000X1.725000*%
%ADD58R,5.500000X1.500000*%
%ADD59RoundRect,0.250000X-0.475000X0.250000X-0.475000X-0.250000X0.475000X-0.250000X0.475000X0.250000X0*%
%ADD60RoundRect,0.135000X0.135000X0.185000X-0.135000X0.185000X-0.135000X-0.185000X0.135000X-0.185000X0*%
%ADD61R,0.750000X0.190000*%
%ADD62RoundRect,0.112500X-0.112500X-0.237500X0.112500X-0.237500X0.112500X0.237500X-0.112500X0.237500X0*%
%ADD63R,0.450000X1.425000*%
%ADD64RoundRect,0.218750X0.256250X-0.218750X0.256250X0.218750X-0.256250X0.218750X-0.256250X-0.218750X0*%
%ADD65RoundRect,0.225000X0.225000X0.250000X-0.225000X0.250000X-0.225000X-0.250000X0.225000X-0.250000X0*%
%ADD66R,2.200000X3.200000*%
%ADD67RoundRect,0.150000X0.150000X-0.587500X0.150000X0.587500X-0.150000X0.587500X-0.150000X-0.587500X0*%
%ADD68RoundRect,0.250000X-1.500000X-0.550000X1.500000X-0.550000X1.500000X0.550000X-1.500000X0.550000X0*%
%ADD69RoundRect,0.250000X-0.450000X0.400000X-0.450000X-0.400000X0.450000X-0.400000X0.450000X0.400000X0*%
%ADD70R,0.270000X1.300000*%
%ADD71R,1.050000X1.050000*%
%ADD72R,2.200000X1.050000*%
%ADD73R,1.500000X0.650000*%
%ADD74R,0.540000X0.560000*%
%ADD75R,0.990000X0.405000*%
%ADD76R,0.250000X0.077000*%
%ADD77R,0.510000X0.405000*%
%ADD78R,1.725000X2.235000*%
%ADD79R,1.400000X0.300000*%
%ADD80R,0.700000X0.400000*%
%ADD81R,4.240000X3.810000*%
%ADD82R,3.400000X0.980000*%
%ADD83RoundRect,0.056250X-0.188750X-0.168750X0.188750X-0.168750X0.188750X0.168750X-0.188750X0.168750X0*%
%ADD84R,0.190000X0.750000*%
%ADD85RoundRect,0.250001X-0.499999X-0.899999X0.499999X-0.899999X0.499999X0.899999X-0.499999X0.899999X0*%
%ADD86RoundRect,0.175000X-0.175000X-1.675000X0.175000X-1.675000X0.175000X1.675000X-0.175000X1.675000X0*%
%ADD87RoundRect,0.150000X0.512500X0.150000X-0.512500X0.150000X-0.512500X-0.150000X0.512500X-0.150000X0*%
%ADD88R,0.700000X2.000000*%
%ADD89R,2.700000X1.400000*%
%ADD90R,1.000000X2.600000*%
%ADD91R,1.200000X1.200000*%
%ADD92R,1.500000X2.600000*%
%ADD93R,0.650000X1.500000*%
%ADD94R,0.200000X0.550000*%
%ADD95R,0.550000X0.200000*%
%ADD96R,0.200000X0.350000*%
%ADD97R,0.350000X0.200000*%
%ADD98R,2.650000X2.720000*%
%ADD99R,2.650000X1.530000*%
%ADD100R,1.100000X0.200000*%
%ADD101R,0.200000X0.600000*%
%ADD102R,2.000000X3.000000*%
%ADD103R,0.600000X0.350000*%
%ADD104R,1.100000X1.700000*%
%ADD105R,1.020000X3.900000*%
%ADD106RoundRect,0.125000X-0.125000X-0.125000X0.125000X-0.125000X0.125000X0.125000X-0.125000X0.125000X0*%
%ADD107R,3.400000X1.850000*%
%ADD108RoundRect,0.250000X-0.325000X-0.650000X0.325000X-0.650000X0.325000X0.650000X-0.325000X0.650000X0*%
%ADD109RoundRect,0.150000X0.150000X0.200000X-0.150000X0.200000X-0.150000X-0.200000X0.150000X-0.200000X0*%
%ADD110RoundRect,0.250000X0.312500X0.625000X-0.312500X0.625000X-0.312500X-0.625000X0.312500X-0.625000X0*%
%ADD111R,2.489200X2.489200*%
%ADD112R,0.410000X0.660000*%
%ADD113R,0.250000X0.600000*%
%ADD114R,0.650000X0.250000*%
%ADD115R,0.600000X0.250000*%
%ADD116R,3.400000X0.250000*%
%ADD117R,0.525000X0.250000*%
%ADD118R,2.350000X0.330000*%
%ADD119R,0.270000X0.345000*%
%ADD120RoundRect,0.075000X-0.075000X0.175000X-0.075000X-0.175000X0.075000X-0.175000X0.075000X0.175000X0*%
%ADD121RoundRect,0.200000X0.200000X0.275000X-0.200000X0.275000X-0.200000X-0.275000X0.200000X-0.275000X0*%
%ADD122RoundRect,0.218750X0.218750X0.381250X-0.218750X0.381250X-0.218750X-0.381250X0.218750X-0.381250X0*%
%ADD123R,1.000000X3.100000*%
%ADD124R,0.660000X0.410000*%
%ADD125RoundRect,0.250000X1.500000X0.550000X-1.500000X0.550000X-1.500000X-0.550000X1.500000X-0.550000X0*%
%ADD126RoundRect,0.250000X1.000000X-1.500000X1.000000X1.500000X-1.000000X1.500000X-1.000000X-1.500000X0*%
%ADD127R,2.750000X3.430000*%
%ADD128RoundRect,0.150000X-0.150000X-0.200000X0.150000X-0.200000X0.150000X0.200000X-0.150000X0.200000X0*%
%ADD129R,1.000000X1.000000*%
%ADD130R,0.450000X1.850000*%
%ADD131R,0.250000X0.250000*%
%ADD132R,0.300000X1.550000*%
%ADD133FreePoly0,180.000000*%
%ADD134FreePoly1,180.000000*%
%ADD135FreePoly2,180.000000*%
%ADD136FreePoly3,180.000000*%
%ADD137FreePoly4,180.000000*%
%ADD138R,0.800000X0.300000*%
%ADD139R,0.300000X0.800000*%
%ADD140R,1.700000X1.700000*%
%ADD141R,0.300000X0.550000*%
%ADD142R,1.295400X1.905000*%
%ADD143R,0.660400X1.549400*%
%ADD144R,0.570000X1.150000*%
%ADD145R,0.376600X0.304800*%
%ADD146R,0.304800X0.376600*%
%ADD147R,0.300000X1.400000*%
%ADD148RoundRect,0.150000X0.150000X-0.512500X0.150000X0.512500X-0.150000X0.512500X-0.150000X-0.512500X0*%
%ADD149RoundRect,0.250000X-0.312500X-0.625000X0.312500X-0.625000X0.312500X0.625000X-0.312500X0.625000X0*%
%ADD150R,0.650000X0.350000*%
G04 APERTURE END LIST*
D10*
%TO.C,U2*%
G36*
X79770000Y-197218207D02*
G01*
X79770003Y-198068208D01*
X79769999Y-198118208D01*
X79070001Y-198118208D01*
X79069999Y-198068208D01*
X79069999Y-197968208D01*
X79070001Y-197918208D01*
X79570001Y-197918208D01*
X79570001Y-197218210D01*
X79570000Y-197168208D01*
X79770000Y-197168208D01*
X79770000Y-197218207D01*
G37*
G36*
X79770003Y-200668208D02*
G01*
X79770000Y-201568208D01*
X79720001Y-201568206D01*
X79620001Y-201568206D01*
X79570001Y-201568208D01*
X79570001Y-200818208D01*
X79070001Y-200818208D01*
X79069999Y-200768208D01*
X79069999Y-200668208D01*
X79070001Y-200618208D01*
X79769999Y-200618208D01*
X79770003Y-200668208D01*
G37*
G36*
X82969999Y-197868208D02*
G01*
X83470000Y-197868208D01*
X83469998Y-197918208D01*
X83470001Y-198018208D01*
X83470000Y-198068211D01*
X82819999Y-198068208D01*
X82770000Y-198068208D01*
X82770000Y-197168208D01*
X82819999Y-197168210D01*
X82919999Y-197168210D01*
X82970000Y-197168208D01*
X82969999Y-197868208D01*
G37*
G36*
X83470001Y-200718208D02*
G01*
X83470001Y-200818208D01*
X83470000Y-200868208D01*
X82969999Y-200868208D01*
X82970000Y-201568208D01*
X82919999Y-201568206D01*
X82819999Y-201568206D01*
X82770000Y-201568208D01*
X82770000Y-200718208D01*
X82770000Y-200668208D01*
X83470000Y-200668208D01*
X83470001Y-200718208D01*
G37*
D11*
%TO.C,ANT1*%
X68845000Y-91872500D02*
X67845000Y-91872500D01*
X67845000Y-89372500D01*
X65845000Y-89372500D01*
X65845000Y-86372500D01*
X68845000Y-86372500D01*
X68845000Y-91872500D01*
G36*
X68845000Y-91872500D02*
G01*
X67845000Y-91872500D01*
X67845000Y-89372500D01*
X65845000Y-89372500D01*
X65845000Y-86372500D01*
X68845000Y-86372500D01*
X68845000Y-91872500D01*
G37*
X71345000Y-89372500D02*
X70345000Y-89372500D01*
X70345000Y-91872500D01*
X69345000Y-91872500D01*
X69345000Y-86372500D01*
X71345000Y-86372500D01*
X71345000Y-89372500D01*
G36*
X71345000Y-89372500D02*
G01*
X70345000Y-89372500D01*
X70345000Y-91872500D01*
X69345000Y-91872500D01*
X69345000Y-86372500D01*
X71345000Y-86372500D01*
X71345000Y-89372500D01*
G37*
X92345000Y-91872500D02*
X91345000Y-91872500D01*
X91345000Y-89372500D01*
X90345000Y-89372500D01*
X90345000Y-86372500D01*
X92345000Y-86372500D01*
X92345000Y-91872500D01*
G36*
X92345000Y-91872500D02*
G01*
X91345000Y-91872500D01*
X91345000Y-89372500D01*
X90345000Y-89372500D01*
X90345000Y-86372500D01*
X92345000Y-86372500D01*
X92345000Y-91872500D01*
G37*
X95845000Y-89372500D02*
X93845000Y-89372500D01*
X93845000Y-91872500D01*
X92845000Y-91872500D01*
X92845000Y-86372500D01*
X95845000Y-86372500D01*
X95845000Y-89372500D01*
G36*
X95845000Y-89372500D02*
G01*
X93845000Y-89372500D01*
X93845000Y-91872500D01*
X92845000Y-91872500D01*
X92845000Y-86372500D01*
X95845000Y-86372500D01*
X95845000Y-89372500D01*
G37*
D12*
%TO.C,OBJ1*%
X88935000Y-101660000D02*
X87885000Y-101660000D01*
X88935000Y-102405000D02*
X87885000Y-102405000D01*
X90435000Y-100155000D02*
X90435000Y-99105000D01*
X90440000Y-103905000D02*
X90440000Y-104955000D01*
X91180000Y-100155000D02*
X91180000Y-99105000D01*
X91185000Y-103905000D02*
X91185000Y-104955000D01*
X92685000Y-101655000D02*
X93735000Y-101655000D01*
X92685000Y-102400000D02*
X93735000Y-102400000D01*
X87885000Y-101658026D02*
G75*
G02*
X90424853Y-99105000I2933511J-378488D01*
G01*
X88945000Y-101655272D02*
G75*
G02*
X90433815Y-100165760I1848555J-358875D01*
G01*
X90435272Y-103895000D02*
G75*
G02*
X88945760Y-102406185I358875J1848555D01*
G01*
X90438026Y-104955000D02*
G75*
G02*
X87885000Y-102415147I378488J2933511D01*
G01*
X91181974Y-99105000D02*
G75*
G02*
X93735000Y-101644853I-378488J-2933511D01*
G01*
X91184728Y-100165000D02*
G75*
G02*
X92674240Y-101653815I-358875J-1848555D01*
G01*
X92675000Y-102404728D02*
G75*
G02*
X91186185Y-103894240I-1848555J358875D01*
G01*
X93735000Y-102401974D02*
G75*
G02*
X91195147Y-104955000I-2933511J378488D01*
G01*
D10*
G36*
X88975780Y-102483727D02*
G01*
X89041444Y-102734619D01*
X89144164Y-102972752D01*
X89281595Y-103192687D01*
X89450598Y-103389402D01*
X89647313Y-103558405D01*
X89867248Y-103695836D01*
X90105381Y-103798556D01*
X90356273Y-103864220D01*
X90460000Y-103880000D01*
X90460000Y-104980000D01*
X90315633Y-104940000D01*
X89982634Y-104850000D01*
X89660133Y-104740000D01*
X89352275Y-104610000D01*
X89063020Y-104440000D01*
X88830000Y-104225495D01*
X88590795Y-104008022D01*
X88342572Y-103720000D01*
X88213714Y-103435837D01*
X88082057Y-103112795D01*
X87942238Y-102819067D01*
X87900000Y-102524367D01*
X87900000Y-102415000D01*
X88967355Y-102415000D01*
X88975780Y-102483727D01*
G37*
G36*
X90425000Y-100187355D02*
G01*
X90356273Y-100195780D01*
X90105381Y-100261444D01*
X89867248Y-100364164D01*
X89647313Y-100501595D01*
X89450598Y-100670598D01*
X89281595Y-100867313D01*
X89144164Y-101087248D01*
X89041444Y-101325381D01*
X88975780Y-101576273D01*
X88960000Y-101680000D01*
X87860000Y-101680000D01*
X87900000Y-101535633D01*
X87990000Y-101202634D01*
X88100000Y-100880133D01*
X88230000Y-100572275D01*
X88400000Y-100283020D01*
X88614505Y-100050000D01*
X88831978Y-99810795D01*
X89120000Y-99562572D01*
X89404163Y-99433714D01*
X89727205Y-99302057D01*
X90020933Y-99162238D01*
X90315633Y-99120000D01*
X90425000Y-99120000D01*
X90425000Y-100187355D01*
G37*
G36*
X93720000Y-102524367D02*
G01*
X93630000Y-102857366D01*
X93520000Y-103179867D01*
X93390000Y-103487725D01*
X93220000Y-103776980D01*
X93005495Y-104010000D01*
X92788022Y-104249205D01*
X92500000Y-104497428D01*
X92215837Y-104626286D01*
X91892795Y-104757943D01*
X91599067Y-104897762D01*
X91304367Y-104940000D01*
X91195000Y-104940000D01*
X91195000Y-103872645D01*
X91263727Y-103864220D01*
X91514619Y-103798556D01*
X91752752Y-103695836D01*
X91972687Y-103558405D01*
X92169402Y-103389402D01*
X92338405Y-103192687D01*
X92475836Y-102972752D01*
X92578556Y-102734619D01*
X92644220Y-102483727D01*
X92660000Y-102380000D01*
X93760000Y-102380000D01*
X93720000Y-102524367D01*
G37*
G36*
X91304367Y-99120000D02*
G01*
X91637366Y-99210000D01*
X91959867Y-99320000D01*
X92267725Y-99450000D01*
X92556980Y-99620000D01*
X92790000Y-99834505D01*
X93029205Y-100051978D01*
X93277428Y-100340000D01*
X93406286Y-100624163D01*
X93537943Y-100947205D01*
X93677762Y-101240933D01*
X93720000Y-101535633D01*
X93720000Y-101645000D01*
X92652645Y-101645000D01*
X92644220Y-101576273D01*
X92578556Y-101325381D01*
X92475836Y-101087248D01*
X92338405Y-100867313D01*
X92169402Y-100670598D01*
X91972687Y-100501595D01*
X91752752Y-100364164D01*
X91514619Y-100261444D01*
X91263727Y-100195780D01*
X91160000Y-100180000D01*
X91160000Y-99080000D01*
X91304367Y-99120000D01*
G37*
%TD*%
D13*
%TO.C,DZ1*%
X129250000Y-193620000D03*
X129250000Y-195020000D03*
%TD*%
D14*
%TO.C,C35*%
X73785000Y-177380000D03*
X73785000Y-178340000D03*
%TD*%
D15*
%TO.C,C53*%
X99990000Y-162345000D03*
X99990000Y-160795000D03*
%TD*%
D16*
%TO.C,R160*%
X167920000Y-137861527D03*
X168940000Y-137861527D03*
%TD*%
D17*
%TO.C,Q14*%
X136452500Y-182420000D03*
X136452500Y-184320000D03*
X138327500Y-183370000D03*
%TD*%
%TO.C,Q15*%
X150995000Y-150947000D03*
X150995000Y-152847000D03*
X152870000Y-151897000D03*
%TD*%
D18*
%TO.C,L2*%
X149750000Y-191907500D03*
X149750000Y-194032500D03*
%TD*%
D14*
%TO.C,C66*%
X77640000Y-156200000D03*
X77640000Y-157160000D03*
%TD*%
D19*
%TO.C,C70*%
X73795000Y-148280000D03*
X75345000Y-148280000D03*
%TD*%
D20*
%TO.C,R44*%
X91530000Y-204085000D03*
X91530000Y-202435000D03*
%TD*%
D21*
%TO.C,R19*%
X130700000Y-102540000D03*
X130700000Y-103560000D03*
%TD*%
D22*
%TO.C,TVS2*%
X178200000Y-198750000D03*
X175300000Y-198750000D03*
%TD*%
D23*
%TO.C,C87*%
X140410000Y-179570000D03*
X141370000Y-179570000D03*
%TD*%
D21*
%TO.C,R121*%
X118310000Y-91270000D03*
X118310000Y-92290000D03*
%TD*%
D17*
%TO.C,Q16*%
X68342500Y-145440000D03*
X68342500Y-147340000D03*
X70217500Y-146390000D03*
%TD*%
D21*
%TO.C,R15*%
X122300000Y-92410000D03*
X122300000Y-93430000D03*
%TD*%
D24*
%TO.C,R80*%
X161972500Y-131884027D03*
X161972500Y-128959027D03*
%TD*%
D14*
%TO.C,C49*%
X92030000Y-160930000D03*
X92030000Y-161890000D03*
%TD*%
D25*
%TO.C,C96*%
X129880000Y-125600000D03*
X128920000Y-125600000D03*
%TD*%
D21*
%TO.C,R210*%
X156305837Y-183905909D03*
X156305837Y-184925909D03*
%TD*%
%TO.C,R102*%
X149370000Y-152487000D03*
X149370000Y-153507000D03*
%TD*%
D16*
%TO.C,R157*%
X163820000Y-117470000D03*
X164840000Y-117470000D03*
%TD*%
D19*
%TO.C,C11*%
X129925000Y-92520000D03*
X131475000Y-92520000D03*
%TD*%
D26*
%TO.C,R29*%
X79140000Y-193630000D03*
X79140000Y-192610000D03*
%TD*%
%TO.C,R136*%
X102942500Y-147290000D03*
X102942500Y-146270000D03*
%TD*%
D21*
%TO.C,R117*%
X96559603Y-149489603D03*
X96559603Y-150509603D03*
%TD*%
D25*
%TO.C,C19*%
X80535000Y-204520000D03*
X79575000Y-204520000D03*
%TD*%
D27*
%TO.C,C24*%
X78110000Y-203795709D03*
X76210000Y-203795709D03*
%TD*%
D15*
%TO.C,C64*%
X81860000Y-158295000D03*
X81860000Y-156745000D03*
%TD*%
D26*
%TO.C,R168*%
X181170000Y-119670000D03*
X181170000Y-118650000D03*
%TD*%
D25*
%TO.C,C129*%
X133830000Y-150300000D03*
X132870000Y-150300000D03*
%TD*%
D28*
%TO.C,C89*%
X127230000Y-168832500D03*
X127230000Y-170382500D03*
%TD*%
D25*
%TO.C,C117*%
X164510000Y-119400000D03*
X163550000Y-119400000D03*
%TD*%
D29*
%TO.C,C51*%
X92030000Y-158760000D03*
X92030000Y-157800000D03*
%TD*%
D21*
%TO.C,R122*%
X116286000Y-91270000D03*
X116286000Y-92290000D03*
%TD*%
D16*
%TO.C,R32*%
X103525000Y-194180000D03*
X104545000Y-194180000D03*
%TD*%
D23*
%TO.C,C136*%
X141215000Y-170205000D03*
X142175000Y-170205000D03*
%TD*%
D16*
%TO.C,R99*%
X124920000Y-174232500D03*
X125940000Y-174232500D03*
%TD*%
D30*
%TO.C,R82*%
X159970000Y-150409500D03*
X159970000Y-153334500D03*
%TD*%
D28*
%TO.C,C76*%
X89760802Y-170350588D03*
X89760802Y-171900588D03*
%TD*%
D16*
%TO.C,R62*%
X91050000Y-162920000D03*
X92070000Y-162920000D03*
%TD*%
D31*
%TO.C,TVS22*%
X143400000Y-125190000D03*
X144100000Y-125190000D03*
%TD*%
D32*
%TO.C,Q13*%
X170910000Y-131284027D03*
X170910000Y-129384027D03*
X169035000Y-130334027D03*
%TD*%
D33*
%TO.C,C115*%
X173030200Y-139150000D03*
X182929800Y-139150000D03*
%TD*%
D25*
%TO.C,C15*%
X74380000Y-203020000D03*
X73420000Y-203020000D03*
%TD*%
D26*
%TO.C,R132*%
X114400000Y-136400000D03*
X114400000Y-135380000D03*
%TD*%
D14*
%TO.C,C55*%
X97960000Y-160600000D03*
X97960000Y-161560000D03*
%TD*%
D21*
%TO.C,R173*%
X103830000Y-188250000D03*
X103830000Y-189270000D03*
%TD*%
D34*
%TO.C,U2*%
X79670001Y-201193208D03*
D35*
X79420000Y-200718207D03*
D36*
X80070000Y-201268207D03*
X80469999Y-201268207D03*
X80870001Y-201268207D03*
X81270000Y-201268207D03*
X81669999Y-201268207D03*
X82070001Y-201268207D03*
X82470000Y-201268207D03*
D37*
X82870000Y-201218208D03*
D38*
X83120000Y-200768208D03*
D39*
X83169999Y-200368209D03*
X83169999Y-199968207D03*
X83169999Y-199568208D03*
X83169999Y-199168208D03*
X83169999Y-198768209D03*
X83169999Y-198368207D03*
D40*
X83120000Y-197968208D03*
D41*
X82869999Y-197518209D03*
D42*
X82470000Y-197518209D03*
D43*
X82069998Y-197493208D03*
D44*
X81669999Y-197508209D03*
D36*
X81270000Y-197468209D03*
X80870001Y-197468209D03*
X80469999Y-197468209D03*
X80070000Y-197468209D03*
D45*
X79420000Y-198018208D03*
D46*
X79670000Y-197543209D03*
D47*
X79570001Y-198468207D03*
X79570001Y-198918209D03*
X79570001Y-199368208D03*
X79570001Y-199818207D03*
D48*
X79545000Y-200268209D03*
%TD*%
D26*
%TO.C,R66*%
X77006667Y-151700000D03*
X77006667Y-150680000D03*
%TD*%
D14*
%TO.C,C98*%
X95380000Y-149499603D03*
X95380000Y-150459603D03*
%TD*%
D15*
%TO.C,C57*%
X89560000Y-155985000D03*
X89560000Y-154435000D03*
%TD*%
D26*
%TO.C,R96*%
X172572500Y-132031527D03*
X172572500Y-131011527D03*
%TD*%
%TO.C,R196*%
X130470000Y-152610000D03*
X130470000Y-151590000D03*
%TD*%
D49*
%TO.C,LD3*%
X135180000Y-86910000D03*
D50*
X135655000Y-87010000D03*
X136105000Y-87010000D03*
D49*
X136580000Y-86910000D03*
%TD*%
D21*
%TO.C,R76*%
X76830000Y-159530000D03*
X76830000Y-160550000D03*
%TD*%
D51*
%TO.C,R35*%
X83875000Y-190620000D03*
X85525000Y-190620000D03*
%TD*%
D16*
%TO.C,R63*%
X71720000Y-159580000D03*
X72740000Y-159580000D03*
%TD*%
D29*
%TO.C,C106*%
X66410000Y-103640000D03*
X66410000Y-102680000D03*
%TD*%
D25*
%TO.C,C135*%
X132165000Y-160428000D03*
X131205000Y-160428000D03*
%TD*%
D23*
%TO.C,C81*%
X124950000Y-169032500D03*
X125910000Y-169032500D03*
%TD*%
D52*
%TO.C,C41*%
X95510000Y-197820000D03*
X95510000Y-195920000D03*
%TD*%
D27*
%TO.C,C26*%
X78110000Y-208425709D03*
X76210000Y-208425709D03*
%TD*%
D16*
%TO.C,R193*%
X138790000Y-159080286D03*
X139810000Y-159080286D03*
%TD*%
%TO.C,R153*%
X182031000Y-107431600D03*
X183051000Y-107431600D03*
%TD*%
%TO.C,R245*%
X154360251Y-162405644D03*
X155380251Y-162405644D03*
%TD*%
D53*
%TO.C,U14*%
X139298000Y-156560000D03*
X139298000Y-155910000D03*
X139298000Y-155260000D03*
X139298000Y-154610000D03*
X139298000Y-153960000D03*
X139298000Y-153310000D03*
X139298000Y-152660000D03*
X133422000Y-152660000D03*
X133422000Y-153310000D03*
X133422000Y-153960000D03*
X133422000Y-154610000D03*
X133422000Y-155260000D03*
X133422000Y-155910000D03*
X133422000Y-156560000D03*
%TD*%
D21*
%TO.C,R91*%
X140090000Y-181760000D03*
X140090000Y-182780000D03*
%TD*%
D29*
%TO.C,C52*%
X71700000Y-154450000D03*
X71700000Y-153490000D03*
%TD*%
D21*
%TO.C,R101*%
X134790000Y-183960000D03*
X134790000Y-184980000D03*
%TD*%
D26*
%TO.C,R185*%
X127900000Y-148510000D03*
X127900000Y-147490000D03*
%TD*%
D14*
%TO.C,C4*%
X148140000Y-194020000D03*
X148140000Y-194980000D03*
%TD*%
D29*
%TO.C,C85*%
X120530000Y-168632500D03*
X120530000Y-167672500D03*
%TD*%
D26*
%TO.C,R204*%
X140593853Y-191105772D03*
X140593853Y-190085772D03*
%TD*%
%TO.C,R158*%
X171457672Y-125776720D03*
X171457672Y-124756720D03*
%TD*%
D54*
%TO.C,Q7*%
X76020000Y-174260000D03*
X76680000Y-174260000D03*
X77340000Y-174260000D03*
X78000000Y-174260000D03*
D55*
X78164000Y-171530000D03*
D56*
X78000000Y-171150000D03*
X77340000Y-171150000D03*
X76680000Y-171150000D03*
D55*
X75856000Y-171530000D03*
D56*
X76020000Y-171150000D03*
D57*
X77010000Y-172267000D03*
%TD*%
D58*
%TO.C,Y1*%
X167930000Y-154300000D03*
X176430000Y-154300000D03*
%TD*%
D59*
%TO.C,C63*%
X106420000Y-156980000D03*
X106420000Y-158880000D03*
%TD*%
D16*
%TO.C,R57*%
X90830000Y-179890000D03*
X91850000Y-179890000D03*
%TD*%
D26*
%TO.C,R65*%
X70953333Y-151700000D03*
X70953333Y-150680000D03*
%TD*%
D54*
%TO.C,Q10*%
X143482000Y-181915000D03*
X142822000Y-181915000D03*
X142162000Y-181915000D03*
X141502000Y-181915000D03*
D55*
X141338000Y-184645000D03*
D56*
X141502000Y-185025000D03*
X142162000Y-185025000D03*
X142822000Y-185025000D03*
D55*
X143646000Y-184645000D03*
D56*
X143482000Y-185025000D03*
D57*
X142492000Y-183908000D03*
%TD*%
D21*
%TO.C,R172*%
X131630000Y-172470000D03*
X131630000Y-173490000D03*
%TD*%
D14*
%TO.C,C166*%
X164030000Y-167550000D03*
X164030000Y-168510000D03*
%TD*%
D60*
%TO.C,R187*%
X136770000Y-169070000D03*
X135750000Y-169070000D03*
%TD*%
D20*
%TO.C,R68*%
X94325585Y-155553126D03*
X94325585Y-153903126D03*
%TD*%
D16*
%TO.C,R95*%
X122820000Y-174232500D03*
X123840000Y-174232500D03*
%TD*%
D23*
%TO.C,C151*%
X141733853Y-187335772D03*
X142693853Y-187335772D03*
%TD*%
D25*
%TO.C,C147*%
X152945837Y-182575909D03*
X151985837Y-182575909D03*
%TD*%
D21*
%TO.C,R124*%
X115280000Y-91270000D03*
X115280000Y-92290000D03*
%TD*%
D61*
%TO.C,U11*%
X157300000Y-129766527D03*
X157300000Y-130116527D03*
X157300000Y-130466527D03*
X157300000Y-130816527D03*
X158300000Y-130816527D03*
X158300000Y-130466527D03*
X158300000Y-130116527D03*
X158300000Y-129766527D03*
%TD*%
D14*
%TO.C,C118*%
X164790000Y-121960000D03*
X164790000Y-122920000D03*
%TD*%
D28*
%TO.C,C105*%
X125620000Y-128075000D03*
X125620000Y-129625000D03*
%TD*%
D15*
%TO.C,C69*%
X75493333Y-151415000D03*
X75493333Y-149865000D03*
%TD*%
D29*
%TO.C,C156*%
X158900000Y-164260000D03*
X158900000Y-163300000D03*
%TD*%
D60*
%TO.C,R88*%
X123840000Y-169032500D03*
X122820000Y-169032500D03*
%TD*%
D26*
%TO.C,R175*%
X140810000Y-153250000D03*
X140810000Y-152230000D03*
%TD*%
D21*
%TO.C,R182*%
X132830000Y-148040000D03*
X132830000Y-149060000D03*
%TD*%
%TO.C,R177*%
X138950000Y-149980000D03*
X138950000Y-151000000D03*
%TD*%
D62*
%TO.C,Q17*%
X104182500Y-147280000D03*
X105482500Y-147280000D03*
X104832500Y-145280000D03*
%TD*%
D60*
%TO.C,R107*%
X97040000Y-136660000D03*
X96020000Y-136660000D03*
%TD*%
D32*
%TO.C,Q18*%
X123527500Y-155290000D03*
X123527500Y-153390000D03*
X121652500Y-154340000D03*
%TD*%
D63*
%TO.C,U20*%
X133550000Y-161966000D03*
X132900000Y-161966000D03*
X132250000Y-161966000D03*
X131600000Y-161966000D03*
X131600000Y-166390000D03*
X132250000Y-166390000D03*
X132900000Y-166390000D03*
X133550000Y-166390000D03*
%TD*%
D25*
%TO.C,C141*%
X139780000Y-158045286D03*
X138820000Y-158045286D03*
%TD*%
D23*
%TO.C,C133*%
X133075000Y-167898000D03*
X134035000Y-167898000D03*
%TD*%
D64*
%TO.C,L16*%
X161710000Y-167537500D03*
X161710000Y-165962500D03*
%TD*%
D65*
%TO.C,C116*%
X164605000Y-120700000D03*
X163055000Y-120700000D03*
%TD*%
D60*
%TO.C,R27*%
X139225000Y-95245000D03*
X138205000Y-95245000D03*
%TD*%
D66*
%TO.C,ANT2*%
X184857500Y-87972500D03*
X174857500Y-87972500D03*
%TD*%
D67*
%TO.C,Q12*%
X123480000Y-172570000D03*
X125380000Y-172570000D03*
X124430000Y-170695000D03*
%TD*%
D21*
%TO.C,R9*%
X126500000Y-90410000D03*
X126500000Y-91430000D03*
%TD*%
D54*
%TO.C,Q11*%
X157962000Y-150442000D03*
X157302000Y-150442000D03*
X156642000Y-150442000D03*
X155982000Y-150442000D03*
D55*
X155818000Y-153172000D03*
D56*
X155982000Y-153552000D03*
X156642000Y-153552000D03*
X157302000Y-153552000D03*
D55*
X158126000Y-153172000D03*
D56*
X157962000Y-153552000D03*
D57*
X156972000Y-152435000D03*
%TD*%
D15*
%TO.C,C65*%
X80000000Y-158285000D03*
X80000000Y-156735000D03*
%TD*%
D29*
%TO.C,C82*%
X167372500Y-129801527D03*
X167372500Y-128841527D03*
%TD*%
D68*
%TO.C,C38*%
X80230000Y-165039204D03*
X85630000Y-165039204D03*
%TD*%
D69*
%TO.C,TVS20*%
X137100000Y-117470000D03*
X137100000Y-120370000D03*
%TD*%
D65*
%TO.C,C56*%
X96375000Y-164120000D03*
X94825000Y-164120000D03*
%TD*%
D60*
%TO.C,R188*%
X132195000Y-158308000D03*
X131175000Y-158308000D03*
%TD*%
D26*
%TO.C,R229*%
X170340000Y-170760000D03*
X170340000Y-169740000D03*
%TD*%
%TO.C,R197*%
X127490000Y-152570000D03*
X127490000Y-151550000D03*
%TD*%
D14*
%TO.C,C50*%
X71700000Y-156820000D03*
X71700000Y-157780000D03*
%TD*%
D70*
%TO.C,J3*%
X124350000Y-105860000D03*
X124850000Y-105860000D03*
X125350000Y-105860000D03*
X125850000Y-105860000D03*
X126350000Y-105860000D03*
X126850000Y-105860000D03*
X127350000Y-105860000D03*
X127850000Y-105860000D03*
X128350000Y-105860000D03*
X128850000Y-105860000D03*
X129350000Y-105860000D03*
X129850000Y-105860000D03*
X129850000Y-109360000D03*
X129350000Y-109360000D03*
X128850000Y-109360000D03*
X128350000Y-109360000D03*
X127850000Y-109360000D03*
X127350000Y-109360000D03*
X126850000Y-109360000D03*
X126350000Y-109360000D03*
X125850000Y-109360000D03*
X125350000Y-109360000D03*
X124850000Y-109360000D03*
X124350000Y-109360000D03*
%TD*%
D26*
%TO.C,R222*%
X140470000Y-195680000D03*
X140470000Y-194660000D03*
%TD*%
D71*
%TO.C,J11*%
X69065000Y-112170000D03*
D72*
X70590000Y-110695000D03*
X70590000Y-113645000D03*
%TD*%
D73*
%TO.C,U22*%
X120840000Y-157185000D03*
X120840000Y-158455000D03*
X120840000Y-159725000D03*
X120840000Y-160995000D03*
X126240000Y-160995000D03*
X126240000Y-159725000D03*
X126240000Y-158455000D03*
X126240000Y-157185000D03*
%TD*%
D29*
%TO.C,C126*%
X135770000Y-176310000D03*
X135770000Y-175350000D03*
%TD*%
D21*
%TO.C,R1*%
X129250000Y-191360000D03*
X129250000Y-192380000D03*
%TD*%
D74*
%TO.C,U21*%
X140140000Y-171410000D03*
X142070000Y-171410000D03*
X142070000Y-172420000D03*
X140140000Y-172420000D03*
%TD*%
D29*
%TO.C,C6*%
X131325000Y-97400000D03*
X131325000Y-96440000D03*
%TD*%
D26*
%TO.C,R54*%
X86080000Y-193321626D03*
X86080000Y-192301626D03*
%TD*%
D60*
%TO.C,R85*%
X141400000Y-180670000D03*
X140380000Y-180670000D03*
%TD*%
D75*
%TO.C,Q2*%
X102460000Y-206000000D03*
X102460000Y-206660000D03*
X102460000Y-207320000D03*
X102460000Y-207980000D03*
D76*
X105190000Y-208144000D03*
D77*
X105570000Y-207980000D03*
X105570000Y-207320000D03*
X105570000Y-206660000D03*
D76*
X105190000Y-205836000D03*
D77*
X105570000Y-206000000D03*
D78*
X104453000Y-206990000D03*
%TD*%
D26*
%TO.C,R161*%
X181158203Y-114400000D03*
X181158203Y-113380000D03*
%TD*%
D79*
%TO.C,U23*%
X126020000Y-151810000D03*
X126020000Y-151310000D03*
X126020000Y-150810000D03*
X126020000Y-150310000D03*
X126020000Y-149810000D03*
X121620000Y-149810000D03*
X121620000Y-150310000D03*
X121620000Y-150810000D03*
X121620000Y-151310000D03*
X121620000Y-151810000D03*
%TD*%
D23*
%TO.C,C34*%
X88730000Y-209850000D03*
X89690000Y-209850000D03*
%TD*%
D80*
%TO.C,TVS11*%
X168222500Y-191105000D03*
X168222500Y-191805000D03*
%TD*%
D28*
%TO.C,C119*%
X163540000Y-122225000D03*
X163540000Y-123775000D03*
%TD*%
D81*
%TO.C,F2*%
X111965000Y-183820000D03*
X118335000Y-183820000D03*
%TD*%
D82*
%TO.C,L6*%
X99360802Y-172870588D03*
X99360802Y-170500588D03*
%TD*%
D23*
%TO.C,C9*%
X133720000Y-103520000D03*
X134680000Y-103520000D03*
%TD*%
D19*
%TO.C,C90*%
X167197500Y-127521527D03*
X168747500Y-127521527D03*
%TD*%
D25*
%TO.C,C101*%
X80880000Y-138810000D03*
X79920000Y-138810000D03*
%TD*%
D21*
%TO.C,R21*%
X85500000Y-195090000D03*
X85500000Y-196110000D03*
%TD*%
D83*
%TO.C,U15*%
X97060300Y-185055330D03*
X97060300Y-185705330D03*
X97060300Y-186355330D03*
X97060300Y-187005330D03*
X95120300Y-187005330D03*
X95120300Y-186355330D03*
X95120300Y-185705330D03*
X95120300Y-185055330D03*
%TD*%
D84*
%TO.C,U29*%
X142565000Y-194670000D03*
X142215000Y-194670000D03*
X141865000Y-194670000D03*
X141515000Y-194670000D03*
X141515000Y-195670000D03*
X141865000Y-195670000D03*
X142215000Y-195670000D03*
X142565000Y-195670000D03*
%TD*%
D26*
%TO.C,R154*%
X184281000Y-103641600D03*
X184281000Y-102621600D03*
%TD*%
D16*
%TO.C,R242*%
X162710000Y-159693333D03*
X163730000Y-159693333D03*
%TD*%
D85*
%TO.C,J6*%
X148550000Y-198688301D03*
X158650000Y-198688301D03*
D86*
X150600000Y-200788301D03*
X152100000Y-200788301D03*
X153600000Y-200788301D03*
X155100000Y-200788301D03*
X156600000Y-200788301D03*
%TD*%
D21*
%TO.C,R13*%
X127700000Y-92425000D03*
X127700000Y-93445000D03*
%TD*%
%TO.C,R30*%
X101935000Y-193210000D03*
X101935000Y-194230000D03*
%TD*%
D26*
%TO.C,R14*%
X127700000Y-91430000D03*
X127700000Y-90410000D03*
%TD*%
D60*
%TO.C,R179*%
X131620000Y-177760000D03*
X130600000Y-177760000D03*
%TD*%
D87*
%TO.C,U25*%
X153627500Y-157900000D03*
X153627500Y-156950000D03*
X153627500Y-156000000D03*
X151352500Y-156000000D03*
X151352500Y-157900000D03*
%TD*%
D16*
%TO.C,R240*%
X162710000Y-160766667D03*
X163730000Y-160766667D03*
%TD*%
D60*
%TO.C,R213*%
X149904235Y-155714071D03*
X148884235Y-155714071D03*
%TD*%
%TO.C,R33*%
X100345000Y-194180000D03*
X99325000Y-194180000D03*
%TD*%
D21*
%TO.C,R127*%
X119284000Y-91280000D03*
X119284000Y-92300000D03*
%TD*%
D59*
%TO.C,C72*%
X87650000Y-152660000D03*
X87650000Y-154560000D03*
%TD*%
D65*
%TO.C,C21*%
X85475000Y-187460000D03*
X83925000Y-187460000D03*
%TD*%
D29*
%TO.C,C121*%
X185391000Y-105671600D03*
X185391000Y-104711600D03*
%TD*%
D26*
%TO.C,R31*%
X73735000Y-171145000D03*
X73735000Y-170125000D03*
%TD*%
D25*
%TO.C,C149*%
X149874235Y-156754071D03*
X148914235Y-156754071D03*
%TD*%
D60*
%TO.C,R170*%
X134450000Y-177660000D03*
X133430000Y-177660000D03*
%TD*%
D73*
%TO.C,U34*%
X167760000Y-174145000D03*
X167760000Y-175415000D03*
X167760000Y-176685000D03*
X167760000Y-177955000D03*
X173160000Y-177955000D03*
X173160000Y-176685000D03*
X173160000Y-175415000D03*
X173160000Y-174145000D03*
%TD*%
D59*
%TO.C,C61*%
X102130000Y-156980000D03*
X102130000Y-158880000D03*
%TD*%
D21*
%TO.C,R212*%
X155080000Y-155890000D03*
X155080000Y-156910000D03*
%TD*%
D26*
%TO.C,R72*%
X72206667Y-151700000D03*
X72206667Y-150680000D03*
%TD*%
D88*
%TO.C,J10*%
X119467095Y-128692911D03*
X118367095Y-128692911D03*
X117267095Y-128692911D03*
X116167095Y-128692911D03*
X115067095Y-128692911D03*
X113967095Y-128692911D03*
X112867095Y-128692911D03*
X111767095Y-128692911D03*
D89*
X118067095Y-115992911D03*
D90*
X109667095Y-128192911D03*
D89*
X113167095Y-115992911D03*
D91*
X121117095Y-115892911D03*
D92*
X123017095Y-128192911D03*
%TD*%
D16*
%TO.C,R73*%
X71050000Y-149620000D03*
X72070000Y-149620000D03*
%TD*%
D21*
%TO.C,R119*%
X88930000Y-149990000D03*
X88930000Y-151010000D03*
%TD*%
D16*
%TO.C,R241*%
X162710000Y-158620000D03*
X163730000Y-158620000D03*
%TD*%
D21*
%TO.C,R43*%
X89470000Y-192301626D03*
X89470000Y-193321626D03*
%TD*%
D29*
%TO.C,C94*%
X132650000Y-121600000D03*
X132650000Y-120640000D03*
%TD*%
D26*
%TO.C,R223*%
X151472973Y-191301168D03*
X151472973Y-190281168D03*
%TD*%
D75*
%TO.C,Q3*%
X99110000Y-207984000D03*
X99110000Y-207324000D03*
X99110000Y-206664000D03*
X99110000Y-206004000D03*
D76*
X96380000Y-205840000D03*
D77*
X96000000Y-206004000D03*
X96000000Y-206664000D03*
X96000000Y-207324000D03*
D76*
X96380000Y-208148000D03*
D77*
X96000000Y-207984000D03*
D78*
X97117000Y-206994000D03*
%TD*%
D16*
%TO.C,R235*%
X176590000Y-163230000D03*
X177610000Y-163230000D03*
%TD*%
D21*
%TO.C,R116*%
X97809603Y-149489603D03*
X97809603Y-150509603D03*
%TD*%
D60*
%TO.C,R113*%
X139810000Y-125200000D03*
X138790000Y-125200000D03*
%TD*%
D26*
%TO.C,R203*%
X125040000Y-155620000D03*
X125040000Y-154600000D03*
%TD*%
D93*
%TO.C,U19*%
X135640000Y-167450000D03*
X136910000Y-167450000D03*
X138180000Y-167450000D03*
X139450000Y-167450000D03*
X139450000Y-162050000D03*
X138180000Y-162050000D03*
X136910000Y-162050000D03*
X135640000Y-162050000D03*
%TD*%
D21*
%TO.C,R104*%
X131970000Y-123600000D03*
X131970000Y-124620000D03*
%TD*%
D54*
%TO.C,Q9*%
X163980500Y-131851527D03*
X164640500Y-131851527D03*
X165300500Y-131851527D03*
X165960500Y-131851527D03*
D55*
X166124500Y-129121527D03*
D56*
X165960500Y-128741527D03*
X165300500Y-128741527D03*
X164640500Y-128741527D03*
D55*
X163816500Y-129121527D03*
D56*
X163980500Y-128741527D03*
D57*
X164970500Y-129858527D03*
%TD*%
D23*
%TO.C,C160*%
X154522973Y-191291168D03*
X155482973Y-191291168D03*
%TD*%
D21*
%TO.C,R125*%
X117304000Y-91270000D03*
X117304000Y-92290000D03*
%TD*%
D26*
%TO.C,R176*%
X131900000Y-155260000D03*
X131900000Y-154240000D03*
%TD*%
D14*
%TO.C,C102*%
X155190000Y-94040000D03*
X155190000Y-95000000D03*
%TD*%
D80*
%TO.C,TVS14*%
X170222500Y-180760000D03*
X170222500Y-180060000D03*
%TD*%
D16*
%TO.C,R105*%
X129900000Y-122600000D03*
X130920000Y-122600000D03*
%TD*%
D21*
%TO.C,R181*%
X138950000Y-148070000D03*
X138950000Y-149090000D03*
%TD*%
D23*
%TO.C,C139*%
X135290000Y-160510000D03*
X136250000Y-160510000D03*
%TD*%
D94*
%TO.C,U1*%
X126000000Y-95300000D03*
X125600000Y-95300000D03*
X125200000Y-95300000D03*
X124800000Y-95300000D03*
X124400000Y-95300000D03*
X124000000Y-95300000D03*
D95*
X123075000Y-95825000D03*
X123075000Y-96225000D03*
X123075000Y-96625000D03*
X123075000Y-97025000D03*
X123075000Y-97425000D03*
X123075000Y-97825000D03*
X123075000Y-98225000D03*
X123075000Y-98625000D03*
X123075000Y-99025000D03*
X123075000Y-99425000D03*
X123075000Y-99825000D03*
X123075000Y-100225000D03*
X123075000Y-100625000D03*
D96*
X123900000Y-101250000D03*
X124350000Y-101250000D03*
X124800000Y-101250000D03*
X125200000Y-101250000D03*
X125650000Y-101250000D03*
X126100000Y-101250000D03*
D95*
X126925000Y-100625000D03*
X126925000Y-100225000D03*
X126925000Y-99825000D03*
X126925000Y-99425000D03*
X126925000Y-99025000D03*
X126925000Y-98625000D03*
D97*
X127025000Y-98225000D03*
X127025000Y-97825000D03*
X127025000Y-97425000D03*
X127025000Y-97025000D03*
D95*
X126925000Y-96625000D03*
X126925000Y-96225000D03*
X126925000Y-95825000D03*
D98*
X125000000Y-97260000D03*
D99*
X125000000Y-99785000D03*
D100*
X124350000Y-100974000D03*
X125650000Y-100975000D03*
D101*
X126750000Y-98025000D03*
X126750000Y-97225000D03*
%TD*%
D16*
%TO.C,R156*%
X163820000Y-116383855D03*
X164840000Y-116383855D03*
%TD*%
D29*
%TO.C,C48*%
X81640000Y-174340000D03*
X81640000Y-173380000D03*
%TD*%
D75*
%TO.C,Q1*%
X126880000Y-194906000D03*
X126880000Y-194246000D03*
X126880000Y-193586000D03*
X126880000Y-192926000D03*
D76*
X124150000Y-192762000D03*
D77*
X123770000Y-192926000D03*
X123770000Y-193586000D03*
X123770000Y-194246000D03*
D76*
X124150000Y-195070000D03*
D77*
X123770000Y-194906000D03*
D78*
X124887000Y-193916000D03*
%TD*%
D82*
%TO.C,L5*%
X68250000Y-156825000D03*
X68250000Y-154455000D03*
%TD*%
D16*
%TO.C,R56*%
X90830000Y-176665000D03*
X91850000Y-176665000D03*
%TD*%
D21*
%TO.C,R74*%
X97680000Y-163810000D03*
X97680000Y-164830000D03*
%TD*%
D31*
%TO.C,TVS5*%
X128300000Y-112750000D03*
X129000000Y-112750000D03*
%TD*%
D23*
%TO.C,C172*%
X174790000Y-174800000D03*
X175750000Y-174800000D03*
%TD*%
D21*
%TO.C,R24*%
X139175000Y-93135000D03*
X139175000Y-94155000D03*
%TD*%
D59*
%TO.C,C73*%
X85450000Y-152660000D03*
X85450000Y-154560000D03*
%TD*%
D60*
%TO.C,R164*%
X181351000Y-103951600D03*
X180331000Y-103951600D03*
%TD*%
D29*
%TO.C,C124*%
X102620000Y-185720000D03*
X102620000Y-184760000D03*
%TD*%
D26*
%TO.C,R100*%
X172572500Y-129831527D03*
X172572500Y-128811527D03*
%TD*%
D21*
%TO.C,R87*%
X121630000Y-169722500D03*
X121630000Y-170742500D03*
%TD*%
D31*
%TO.C,TVS17*%
X152105000Y-195600000D03*
X151405000Y-195600000D03*
%TD*%
D26*
%TO.C,R10*%
X123400000Y-93430000D03*
X123400000Y-92410000D03*
%TD*%
D21*
%TO.C,R138*%
X117460000Y-135380000D03*
X117460000Y-136400000D03*
%TD*%
D102*
%TO.C,ANT1*%
X80845000Y-87872500D03*
%TD*%
D26*
%TO.C,R226*%
X168280000Y-170760000D03*
X168280000Y-169740000D03*
%TD*%
D19*
%TO.C,C45*%
X83075000Y-171770000D03*
X84625000Y-171770000D03*
%TD*%
D26*
%TO.C,R93*%
X154570000Y-151307000D03*
X154570000Y-150287000D03*
%TD*%
D103*
%TO.C,TVS3*%
X132750000Y-100470000D03*
X132750000Y-99820000D03*
X132750000Y-99170000D03*
X130650000Y-99170000D03*
X130650000Y-99820000D03*
X130650000Y-100470000D03*
D104*
X131700000Y-99820000D03*
%TD*%
D65*
%TO.C,C29*%
X77895000Y-194818208D03*
X76345000Y-194818208D03*
%TD*%
D15*
%TO.C,C68*%
X69440000Y-151415000D03*
X69440000Y-149865000D03*
%TD*%
D31*
%TO.C,TVS21*%
X136060000Y-125190000D03*
X136760000Y-125190000D03*
%TD*%
D23*
%TO.C,C132*%
X138045000Y-171875000D03*
X139005000Y-171875000D03*
%TD*%
D52*
%TO.C,C42*%
X93440000Y-197820000D03*
X93440000Y-195920000D03*
%TD*%
D16*
%TO.C,R17*%
X128740000Y-95395000D03*
X129760000Y-95395000D03*
%TD*%
D20*
%TO.C,R51*%
X88440000Y-204085000D03*
X88440000Y-202435000D03*
%TD*%
D26*
%TO.C,R40*%
X80650000Y-174360000D03*
X80650000Y-173340000D03*
%TD*%
D25*
%TO.C,C86*%
X167052500Y-134221527D03*
X166092500Y-134221527D03*
%TD*%
D21*
%TO.C,R97*%
X134790000Y-181860000D03*
X134790000Y-182880000D03*
%TD*%
D105*
%TO.C,J5*%
X164230000Y-188260000D03*
X164230000Y-183560000D03*
X166230000Y-188260000D03*
X166230000Y-183560000D03*
X168230000Y-188260000D03*
X168230000Y-183560000D03*
X170230000Y-188260000D03*
X170230000Y-183560000D03*
X172230000Y-188260000D03*
X172230000Y-183560000D03*
%TD*%
D26*
%TO.C,R159*%
X174590000Y-125776720D03*
X174590000Y-124756720D03*
%TD*%
D59*
%TO.C,C62*%
X104275000Y-156980000D03*
X104275000Y-158880000D03*
%TD*%
D106*
%TO.C,D1*%
X71900000Y-145650000D03*
X74100000Y-145650000D03*
%TD*%
D29*
%TO.C,C142*%
X127780000Y-159715000D03*
X127780000Y-158755000D03*
%TD*%
D14*
%TO.C,C33*%
X78110000Y-197695709D03*
X78110000Y-198655709D03*
%TD*%
D21*
%TO.C,R60*%
X98370000Y-153668126D03*
X98370000Y-154688126D03*
%TD*%
D23*
%TO.C,C148*%
X152095837Y-187115909D03*
X153055837Y-187115909D03*
%TD*%
D16*
%TO.C,R149*%
X92090000Y-91270000D03*
X93110000Y-91270000D03*
%TD*%
D29*
%TO.C,C154*%
X157550251Y-160385644D03*
X157550251Y-159425644D03*
%TD*%
%TO.C,C111*%
X148480000Y-131691527D03*
X148480000Y-130731527D03*
%TD*%
D107*
%TO.C,L3*%
X68190000Y-202140709D03*
X68190000Y-196590709D03*
%TD*%
D28*
%TO.C,C146*%
X118920000Y-149505000D03*
X118920000Y-151055000D03*
%TD*%
D108*
%TO.C,C2*%
X131195000Y-112480000D03*
X134145000Y-112480000D03*
%TD*%
D65*
%TO.C,C67*%
X75525000Y-159840000D03*
X73975000Y-159840000D03*
%TD*%
D60*
%TO.C,R207*%
X155155837Y-187125909D03*
X154135837Y-187125909D03*
%TD*%
D19*
%TO.C,C23*%
X83925000Y-185880000D03*
X85475000Y-185880000D03*
%TD*%
D109*
%TO.C,DZ3*%
X100790000Y-199760000D03*
X102190000Y-199760000D03*
%TD*%
D80*
%TO.C,TVS13*%
X168202500Y-180760000D03*
X168202500Y-180060000D03*
%TD*%
D25*
%TO.C,C44*%
X84330000Y-174630000D03*
X83370000Y-174630000D03*
%TD*%
D21*
%TO.C,R118*%
X89965000Y-149990000D03*
X89965000Y-151010000D03*
%TD*%
D16*
%TO.C,R219*%
X151050000Y-192690000D03*
X152070000Y-192690000D03*
%TD*%
D23*
%TO.C,C158*%
X143590000Y-195710000D03*
X144550000Y-195710000D03*
%TD*%
D31*
%TO.C,TVS1*%
X127900000Y-188370000D03*
X128600000Y-188370000D03*
%TD*%
D23*
%TO.C,C95*%
X138800000Y-124210000D03*
X139760000Y-124210000D03*
%TD*%
D26*
%TO.C,R230*%
X171370000Y-170760000D03*
X171370000Y-169740000D03*
%TD*%
D62*
%TO.C,Q6*%
X136225000Y-93645000D03*
X137525000Y-93645000D03*
X136875000Y-91645000D03*
%TD*%
D23*
%TO.C,C171*%
X174797014Y-173810000D03*
X175757014Y-173810000D03*
%TD*%
D16*
%TO.C,R208*%
X153044235Y-159234071D03*
X154064235Y-159234071D03*
%TD*%
D23*
%TO.C,C131*%
X130870000Y-148510000D03*
X131830000Y-148510000D03*
%TD*%
D16*
%TO.C,R90*%
X168162500Y-133121527D03*
X169182500Y-133121527D03*
%TD*%
D65*
%TO.C,C91*%
X140265000Y-186270000D03*
X138715000Y-186270000D03*
%TD*%
D110*
%TO.C,R38*%
X90672500Y-205920000D03*
X87747500Y-205920000D03*
%TD*%
D16*
%TO.C,R110*%
X92850000Y-135610000D03*
X93870000Y-135610000D03*
%TD*%
D111*
%TO.C,BUZ1*%
X67238799Y-135729999D03*
X67238799Y-142730001D03*
X74238801Y-142730001D03*
X74238801Y-135729999D03*
%TD*%
D80*
%TO.C,TVS19*%
X74040000Y-172265000D03*
X74040000Y-172965000D03*
%TD*%
D51*
%TO.C,R4*%
X128425000Y-114500000D03*
X130075000Y-114500000D03*
%TD*%
D25*
%TO.C,C1*%
X177250000Y-196750000D03*
X176290000Y-196750000D03*
%TD*%
D29*
%TO.C,C20*%
X79160000Y-196300000D03*
X79160000Y-195340000D03*
%TD*%
D112*
%TO.C,L15*%
X185365000Y-96180000D03*
X184355000Y-96180000D03*
%TD*%
D113*
%TO.C,U6*%
X73948000Y-158040000D03*
X74448000Y-158040000D03*
X74948000Y-158040000D03*
X75448000Y-158040000D03*
D114*
X76073000Y-157680000D03*
D115*
X76098000Y-157180000D03*
D116*
X74698000Y-156720000D03*
X74698000Y-156180000D03*
D117*
X73260000Y-155640000D03*
D118*
X74698000Y-155640000D03*
D117*
X76136000Y-155640000D03*
D116*
X74698000Y-155100000D03*
X74698000Y-154560000D03*
D115*
X76098000Y-154100000D03*
D114*
X76073000Y-153600000D03*
D113*
X75448000Y-153240000D03*
X74948000Y-153240000D03*
X74448000Y-153240000D03*
X73948000Y-153240000D03*
D114*
X73323000Y-153600000D03*
D115*
X73298000Y-154100000D03*
X73298000Y-157180000D03*
D114*
X73323000Y-157680000D03*
%TD*%
D16*
%TO.C,R224*%
X176554483Y-168207219D03*
X177574483Y-168207219D03*
%TD*%
%TO.C,R141*%
X144780000Y-98970000D03*
X145800000Y-98970000D03*
%TD*%
D14*
%TO.C,C3*%
X165712500Y-190955000D03*
X165712500Y-191915000D03*
%TD*%
D27*
%TO.C,C25*%
X78110000Y-206110709D03*
X76210000Y-206110709D03*
%TD*%
D60*
%TO.C,R186*%
X139810000Y-160115286D03*
X138790000Y-160115286D03*
%TD*%
D16*
%TO.C,R53*%
X136690000Y-115790000D03*
X137710000Y-115790000D03*
%TD*%
D14*
%TO.C,C97*%
X98980000Y-149499603D03*
X98980000Y-150459603D03*
%TD*%
D25*
%TO.C,C14*%
X121780000Y-101320000D03*
X120820000Y-101320000D03*
%TD*%
D16*
%TO.C,R194*%
X131175000Y-159368000D03*
X132195000Y-159368000D03*
%TD*%
D19*
%TO.C,C12*%
X129925000Y-90920000D03*
X131475000Y-90920000D03*
%TD*%
D51*
%TO.C,R2*%
X127750000Y-103250000D03*
X129400000Y-103250000D03*
%TD*%
D60*
%TO.C,R123*%
X80910000Y-137810000D03*
X79890000Y-137810000D03*
%TD*%
D113*
%TO.C,U5*%
X94182115Y-162264208D03*
X94682115Y-162264208D03*
X95182115Y-162264208D03*
X95682115Y-162264208D03*
D114*
X96307115Y-161904208D03*
D115*
X96332115Y-161404208D03*
D116*
X94932115Y-160944208D03*
X94932115Y-160404208D03*
D117*
X93494115Y-159864208D03*
D118*
X94932115Y-159864208D03*
D117*
X96370115Y-159864208D03*
D116*
X94932115Y-159324208D03*
X94932115Y-158784208D03*
D115*
X96332115Y-158324208D03*
D114*
X96307115Y-157824208D03*
D113*
X95682115Y-157464208D03*
X95182115Y-157464208D03*
X94682115Y-157464208D03*
X94182115Y-157464208D03*
D114*
X93557115Y-157824208D03*
D115*
X93532115Y-158324208D03*
X93532115Y-161404208D03*
D114*
X93557115Y-161904208D03*
%TD*%
D16*
%TO.C,R84*%
X166062500Y-133121527D03*
X167082500Y-133121527D03*
%TD*%
D119*
%TO.C,U13*%
X182060900Y-105509100D03*
X182561000Y-105796600D03*
X183061500Y-105796600D03*
X183061500Y-105221600D03*
X182561000Y-105221600D03*
%TD*%
D21*
%TO.C,R115*%
X132660000Y-118330000D03*
X132660000Y-119350000D03*
%TD*%
%TO.C,R11*%
X123400000Y-90410000D03*
X123400000Y-91430000D03*
%TD*%
D16*
%TO.C,R211*%
X154225837Y-182575909D03*
X155245837Y-182575909D03*
%TD*%
D26*
%TO.C,R167*%
X173567672Y-125776720D03*
X173567672Y-124756720D03*
%TD*%
D24*
%TO.C,R5*%
X118100000Y-106782500D03*
X118100000Y-103857500D03*
%TD*%
D29*
%TO.C,C153*%
X156550251Y-160385644D03*
X156550251Y-159425644D03*
%TD*%
D120*
%TO.C,TVS23*%
X117097095Y-132702911D03*
X116197095Y-132702911D03*
X115397095Y-132702911D03*
X114597095Y-132702911D03*
X113697095Y-132702911D03*
X114097095Y-133502911D03*
X114997095Y-133502911D03*
X115797095Y-133502911D03*
X116697095Y-133502911D03*
%TD*%
D121*
%TO.C,R49*%
X84675000Y-173330000D03*
X83025000Y-173330000D03*
%TD*%
D60*
%TO.C,R134*%
X112780000Y-133530000D03*
X111760000Y-133530000D03*
%TD*%
D80*
%TO.C,TVS9*%
X172222500Y-191105000D03*
X172222500Y-191805000D03*
%TD*%
D87*
%TO.C,U26*%
X144410000Y-190580000D03*
X144410000Y-189630000D03*
X144410000Y-188680000D03*
X142135000Y-188680000D03*
X142135000Y-190580000D03*
%TD*%
D122*
%TO.C,L1*%
X162635000Y-191470000D03*
X160510000Y-191470000D03*
%TD*%
D29*
%TO.C,C36*%
X79570000Y-172320000D03*
X79570000Y-171360000D03*
%TD*%
D21*
%TO.C,R120*%
X120290000Y-91280000D03*
X120290000Y-92300000D03*
%TD*%
D65*
%TO.C,C28*%
X77895000Y-196440709D03*
X76345000Y-196440709D03*
%TD*%
D29*
%TO.C,C71*%
X77640000Y-155050000D03*
X77640000Y-154090000D03*
%TD*%
D16*
%TO.C,R202*%
X118190000Y-153650000D03*
X119210000Y-153650000D03*
%TD*%
D23*
%TO.C,C159*%
X154522973Y-190291168D03*
X155482973Y-190291168D03*
%TD*%
D51*
%TO.C,R52*%
X79775000Y-177130000D03*
X81425000Y-177130000D03*
%TD*%
D26*
%TO.C,R190*%
X137450000Y-160540000D03*
X137450000Y-159520000D03*
%TD*%
D29*
%TO.C,C78*%
X91640000Y-167170000D03*
X91640000Y-166210000D03*
%TD*%
D123*
%TO.C,PB1*%
X71600000Y-170270000D03*
X71600000Y-179170000D03*
X67600000Y-170270000D03*
X67600000Y-179170000D03*
%TD*%
D26*
%TO.C,R28*%
X83200000Y-193321626D03*
X83200000Y-192301626D03*
%TD*%
D23*
%TO.C,C152*%
X141733853Y-191965772D03*
X142693853Y-191965772D03*
%TD*%
D16*
%TO.C,R244*%
X154370000Y-164570000D03*
X155390000Y-164570000D03*
%TD*%
D65*
%TO.C,C30*%
X77895000Y-191618208D03*
X76345000Y-191618208D03*
%TD*%
D19*
%TO.C,C22*%
X83925000Y-184300000D03*
X85475000Y-184300000D03*
%TD*%
D124*
%TO.C,L14*%
X185370000Y-93855000D03*
X185370000Y-94865000D03*
%TD*%
D125*
%TO.C,C37*%
X73740000Y-165049204D03*
X68340000Y-165049204D03*
%TD*%
D65*
%TO.C,C92*%
X152695000Y-154412000D03*
X151145000Y-154412000D03*
%TD*%
D60*
%TO.C,R209*%
X144843853Y-191965772D03*
X143823853Y-191965772D03*
%TD*%
%TO.C,R129*%
X121380000Y-133540000D03*
X120360000Y-133540000D03*
%TD*%
D65*
%TO.C,C170*%
X176445000Y-150630000D03*
X174895000Y-150630000D03*
%TD*%
D29*
%TO.C,C112*%
X157310000Y-128691527D03*
X157310000Y-127731527D03*
%TD*%
D60*
%TO.C,R221*%
X153400000Y-165780000D03*
X152380000Y-165780000D03*
%TD*%
D81*
%TO.C,F1*%
X131085000Y-183820000D03*
X124715000Y-183820000D03*
%TD*%
D21*
%TO.C,R7*%
X120997508Y-98910000D03*
X120997508Y-99930000D03*
%TD*%
D65*
%TO.C,C31*%
X77895000Y-190018208D03*
X76345000Y-190018208D03*
%TD*%
D123*
%TO.C,PB2*%
X134430000Y-136422500D03*
X134430000Y-127522500D03*
X138430000Y-136422500D03*
X138430000Y-127522500D03*
%TD*%
D26*
%TO.C,R64*%
X91042115Y-156270000D03*
X91042115Y-155250000D03*
%TD*%
%TO.C,R130*%
X120520000Y-136400000D03*
X120520000Y-135380000D03*
%TD*%
D21*
%TO.C,R61*%
X78260000Y-150680000D03*
X78260000Y-151700000D03*
%TD*%
%TO.C,R18*%
X131800000Y-102540000D03*
X131800000Y-103560000D03*
%TD*%
D60*
%TO.C,R174*%
X135790000Y-147120000D03*
X134770000Y-147120000D03*
%TD*%
D110*
%TO.C,R3*%
X122925000Y-112440000D03*
X120000000Y-112440000D03*
%TD*%
D26*
%TO.C,R16*%
X122300000Y-91430000D03*
X122300000Y-90410000D03*
%TD*%
D61*
%TO.C,U27*%
X156550251Y-161375644D03*
X156550251Y-161725644D03*
X156550251Y-162075644D03*
X156550251Y-162425644D03*
X157550251Y-162425644D03*
X157550251Y-162075644D03*
X157550251Y-161725644D03*
X157550251Y-161375644D03*
%TD*%
D110*
%TO.C,R36*%
X90672500Y-208220000D03*
X87747500Y-208220000D03*
%TD*%
D26*
%TO.C,R180*%
X102620000Y-189270000D03*
X102620000Y-188250000D03*
%TD*%
D126*
%TO.C,C13*%
X110410000Y-99040000D03*
X110410000Y-92540000D03*
%TD*%
D53*
%TO.C,U9*%
X147452000Y-94020000D03*
X147452000Y-94670000D03*
X147452000Y-95320000D03*
X147452000Y-95970000D03*
X147452000Y-96620000D03*
X147452000Y-97270000D03*
X147452000Y-97920000D03*
X147452000Y-98570000D03*
X147452000Y-99220000D03*
X147452000Y-99870000D03*
X153328000Y-99870000D03*
X153328000Y-99220000D03*
X153328000Y-98570000D03*
X153328000Y-97920000D03*
X153328000Y-97270000D03*
X153328000Y-96620000D03*
X153328000Y-95970000D03*
X153328000Y-95320000D03*
X153328000Y-94670000D03*
X153328000Y-94020000D03*
D127*
X150390000Y-96945000D03*
%TD*%
D23*
%TO.C,C108*%
X66380000Y-110070000D03*
X67340000Y-110070000D03*
%TD*%
D60*
%TO.C,R92*%
X139300000Y-180670000D03*
X138280000Y-180670000D03*
%TD*%
D25*
%TO.C,C155*%
X155380000Y-163550644D03*
X154420000Y-163550644D03*
%TD*%
D15*
%TO.C,C7*%
X132625000Y-97125000D03*
X132625000Y-95575000D03*
%TD*%
D23*
%TO.C,C174*%
X184310000Y-173810000D03*
X185270000Y-173810000D03*
%TD*%
D21*
%TO.C,R169*%
X180941000Y-104991600D03*
X180941000Y-106011600D03*
%TD*%
D51*
%TO.C,R20*%
X103070000Y-209594000D03*
X104720000Y-209594000D03*
%TD*%
D21*
%TO.C,R103*%
X128900000Y-123590000D03*
X128900000Y-124610000D03*
%TD*%
D29*
%TO.C,C39*%
X79570000Y-174330000D03*
X79570000Y-173370000D03*
%TD*%
D24*
%TO.C,R39*%
X75515000Y-179332500D03*
X75515000Y-176407500D03*
%TD*%
D21*
%TO.C,R201*%
X128480000Y-151570000D03*
X128480000Y-152590000D03*
%TD*%
D73*
%TO.C,U35*%
X177300000Y-174145000D03*
X177300000Y-175415000D03*
X177300000Y-176685000D03*
X177300000Y-177955000D03*
X182700000Y-177955000D03*
X182700000Y-176685000D03*
X182700000Y-175415000D03*
X182700000Y-174145000D03*
%TD*%
D80*
%TO.C,TVS12*%
X164222500Y-191105000D03*
X164222500Y-191805000D03*
%TD*%
D14*
%TO.C,C83*%
X140090000Y-183990000D03*
X140090000Y-184950000D03*
%TD*%
D20*
%TO.C,R45*%
X89990000Y-204085000D03*
X89990000Y-202435000D03*
%TD*%
D65*
%TO.C,C164*%
X154065000Y-172555000D03*
X152515000Y-172555000D03*
%TD*%
D21*
%TO.C,R150*%
X155060000Y-129211527D03*
X155060000Y-130231527D03*
%TD*%
D16*
%TO.C,R195*%
X138035000Y-172985000D03*
X139055000Y-172985000D03*
%TD*%
D60*
%TO.C,R111*%
X92959500Y-150060000D03*
X91939500Y-150060000D03*
%TD*%
D21*
%TO.C,R184*%
X126900000Y-147490000D03*
X126900000Y-148510000D03*
%TD*%
D29*
%TO.C,C127*%
X136740000Y-176310000D03*
X136740000Y-175350000D03*
%TD*%
D21*
%TO.C,R139*%
X115420000Y-135380000D03*
X115420000Y-136400000D03*
%TD*%
D128*
%TO.C,DZ2*%
X100740000Y-209594000D03*
X99340000Y-209594000D03*
%TD*%
D14*
%TO.C,C145*%
X120150000Y-149800000D03*
X120150000Y-150760000D03*
%TD*%
D27*
%TO.C,C18*%
X81795000Y-208425709D03*
X79895000Y-208425709D03*
%TD*%
D29*
%TO.C,C113*%
X158310000Y-128691527D03*
X158310000Y-127731527D03*
%TD*%
D87*
%TO.C,U10*%
X153497500Y-131144027D03*
X153497500Y-130194027D03*
X153497500Y-129244027D03*
X151222500Y-129244027D03*
X151222500Y-131144027D03*
%TD*%
D23*
%TO.C,C10*%
X133720000Y-102495000D03*
X134680000Y-102495000D03*
%TD*%
D27*
%TO.C,C17*%
X81795000Y-206110709D03*
X79895000Y-206110709D03*
%TD*%
D123*
%TO.C,PB3*%
X141780000Y-136400000D03*
X141780000Y-127500000D03*
X145780000Y-136400000D03*
X145780000Y-127500000D03*
%TD*%
D19*
%TO.C,C169*%
X167925000Y-150630000D03*
X169475000Y-150630000D03*
%TD*%
D14*
%TO.C,C93*%
X128180000Y-118370000D03*
X128180000Y-119330000D03*
%TD*%
D30*
%TO.C,R81*%
X145490000Y-181882500D03*
X145490000Y-184807500D03*
%TD*%
D29*
%TO.C,C125*%
X103830000Y-185720000D03*
X103830000Y-184760000D03*
%TD*%
D121*
%TO.C,R59*%
X81295000Y-150570000D03*
X79645000Y-150570000D03*
%TD*%
D51*
%TO.C,R34*%
X83875000Y-189040000D03*
X85525000Y-189040000D03*
%TD*%
D16*
%TO.C,R239*%
X162710000Y-161840000D03*
X163730000Y-161840000D03*
%TD*%
D129*
%TO.C,LD1*%
X124950000Y-87120000D03*
X126850000Y-87120000D03*
%TD*%
D29*
%TO.C,C60*%
X97960000Y-159110000D03*
X97960000Y-158150000D03*
%TD*%
%TO.C,C27*%
X78110000Y-201055709D03*
X78110000Y-200095709D03*
%TD*%
D31*
%TO.C,TVS16*%
X150060000Y-195610000D03*
X149360000Y-195610000D03*
%TD*%
D21*
%TO.C,R83*%
X121630000Y-167662500D03*
X121630000Y-168682500D03*
%TD*%
D26*
%TO.C,R23*%
X139175000Y-91955000D03*
X139175000Y-90935000D03*
%TD*%
%TO.C,R146*%
X66420000Y-99870000D03*
X66420000Y-98850000D03*
%TD*%
D21*
%TO.C,R137*%
X121540000Y-135380000D03*
X121540000Y-136400000D03*
%TD*%
D87*
%TO.C,U17*%
X137527500Y-150295000D03*
X137527500Y-149345000D03*
X137527500Y-148395000D03*
X135252500Y-148395000D03*
X135252500Y-150295000D03*
%TD*%
D18*
%TO.C,L7*%
X127380000Y-128057500D03*
X127380000Y-130182500D03*
%TD*%
D26*
%TO.C,R8*%
X126500000Y-93445000D03*
X126500000Y-92425000D03*
%TD*%
D29*
%TO.C,C114*%
X185390000Y-100700000D03*
X185390000Y-99740000D03*
%TD*%
D23*
%TO.C,C150*%
X150914235Y-159244071D03*
X151874235Y-159244071D03*
%TD*%
D16*
%TO.C,R6*%
X120990000Y-95020000D03*
X122010000Y-95020000D03*
%TD*%
D60*
%TO.C,R225*%
X105350000Y-148580000D03*
X104330000Y-148580000D03*
%TD*%
D16*
%TO.C,R214*%
X143823853Y-187335772D03*
X144843853Y-187335772D03*
%TD*%
D23*
%TO.C,C138*%
X135290000Y-159530000D03*
X136250000Y-159530000D03*
%TD*%
D60*
%TO.C,R47*%
X91850000Y-177740000D03*
X90830000Y-177740000D03*
%TD*%
D15*
%TO.C,C54*%
X101710000Y-162345000D03*
X101710000Y-160795000D03*
%TD*%
D26*
%TO.C,R128*%
X103330000Y-149550000D03*
X103330000Y-148530000D03*
%TD*%
D130*
%TO.C,U33*%
X165990001Y-167530000D03*
X166640002Y-167530000D03*
X167290001Y-167530000D03*
X167940002Y-167530000D03*
X168590000Y-167530000D03*
X169240002Y-167530000D03*
X169890000Y-167530000D03*
X170539999Y-167530000D03*
X171190000Y-167530000D03*
X171839999Y-167530000D03*
X172490000Y-167530000D03*
X173139999Y-167530000D03*
X173790000Y-167530000D03*
X174439999Y-167530000D03*
X174440001Y-160075100D03*
X173790000Y-160075100D03*
X173140001Y-160075100D03*
X172490000Y-160075100D03*
X171840002Y-160075100D03*
X171190000Y-160075100D03*
X170540002Y-160075100D03*
X169890000Y-160075100D03*
X169240002Y-160075100D03*
X168590000Y-160075100D03*
X167940002Y-160075100D03*
X167290001Y-160075100D03*
X166640002Y-160075100D03*
X165990001Y-160075100D03*
%TD*%
D16*
%TO.C,R171*%
X130600000Y-176780000D03*
X131620000Y-176780000D03*
%TD*%
%TO.C,R142*%
X144780000Y-100070000D03*
X145800000Y-100070000D03*
%TD*%
D24*
%TO.C,R37*%
X77905000Y-179332500D03*
X77905000Y-176407500D03*
%TD*%
D23*
%TO.C,C16*%
X73420000Y-195720000D03*
X74380000Y-195720000D03*
%TD*%
D21*
%TO.C,R162*%
X182210000Y-118650000D03*
X182210000Y-119670000D03*
%TD*%
D28*
%TO.C,C163*%
X151000000Y-168380000D03*
X151000000Y-169930000D03*
%TD*%
D20*
%TO.C,R58*%
X99690000Y-156995000D03*
X99690000Y-155345000D03*
%TD*%
D21*
%TO.C,R152*%
X158300000Y-131881527D03*
X158300000Y-132901527D03*
%TD*%
D28*
%TO.C,C103*%
X156690000Y-94045000D03*
X156690000Y-95595000D03*
%TD*%
%TO.C,C77*%
X88170802Y-170350588D03*
X88170802Y-171900588D03*
%TD*%
D61*
%TO.C,U28*%
X156560000Y-164550000D03*
X156560000Y-164900000D03*
X156560000Y-165250000D03*
X156560000Y-165600000D03*
X157560000Y-165600000D03*
X157560000Y-165250000D03*
X157560000Y-164900000D03*
X157560000Y-164550000D03*
%TD*%
D131*
%TO.C,U12*%
X182281000Y-103331600D03*
X182681000Y-103331600D03*
X183081000Y-103331600D03*
X183081000Y-102931600D03*
X182681000Y-102931600D03*
X182281000Y-102931600D03*
%TD*%
D59*
%TO.C,C75*%
X81280000Y-152660000D03*
X81280000Y-154560000D03*
%TD*%
D16*
%TO.C,R234*%
X176590000Y-162080000D03*
X177610000Y-162080000D03*
%TD*%
D60*
%TO.C,R183*%
X131260000Y-149630000D03*
X130240000Y-149630000D03*
%TD*%
D21*
%TO.C,R140*%
X119500000Y-135380000D03*
X119500000Y-136400000D03*
%TD*%
D65*
%TO.C,C47*%
X81375000Y-175590000D03*
X79825000Y-175590000D03*
%TD*%
D87*
%TO.C,U24*%
X154753750Y-185838750D03*
X154753750Y-184888750D03*
X154753750Y-183938750D03*
X152478750Y-183938750D03*
X152478750Y-185838750D03*
%TD*%
D26*
%TO.C,R67*%
X97300000Y-154688126D03*
X97300000Y-153668126D03*
%TD*%
%TO.C,R147*%
X157240000Y-132901527D03*
X157240000Y-131881527D03*
%TD*%
D21*
%TO.C,R41*%
X84950000Y-192301626D03*
X84950000Y-193321626D03*
%TD*%
D75*
%TO.C,Q4*%
X102470000Y-201376000D03*
X102470000Y-202036000D03*
X102470000Y-202696000D03*
X102470000Y-203356000D03*
D76*
X105200000Y-203520000D03*
D77*
X105580000Y-203356000D03*
X105580000Y-202696000D03*
X105580000Y-202036000D03*
D76*
X105200000Y-201212000D03*
D77*
X105580000Y-201376000D03*
D78*
X104463000Y-202366000D03*
%TD*%
D26*
%TO.C,R151*%
X149620000Y-129701527D03*
X149620000Y-128681527D03*
%TD*%
D16*
%TO.C,R108*%
X92850000Y-136660000D03*
X93870000Y-136660000D03*
%TD*%
D132*
%TO.C,J9*%
X101040000Y-147155000D03*
X100690000Y-142655000D03*
X80690000Y-142655000D03*
X80340000Y-147155000D03*
X99940000Y-147930000D03*
X99690000Y-140380000D03*
X99440000Y-147930000D03*
X99190000Y-140380000D03*
X98940000Y-147930000D03*
X98690000Y-140380000D03*
X98440000Y-147930000D03*
X98190000Y-140380000D03*
X97940000Y-147930000D03*
X97690000Y-140380000D03*
X97440000Y-147930000D03*
X97190000Y-140380000D03*
X96940000Y-147930000D03*
X96690000Y-140380000D03*
X96440000Y-147930000D03*
X96190000Y-140380000D03*
X95940000Y-147930000D03*
X95690000Y-140380000D03*
X95440000Y-147930000D03*
X95190000Y-140380000D03*
X94940000Y-147930000D03*
X94690000Y-140380000D03*
X94440000Y-147930000D03*
X92190000Y-140380000D03*
X91940000Y-147930000D03*
X91690000Y-140380000D03*
X91440000Y-147930000D03*
X91190000Y-140380000D03*
X90940000Y-147930000D03*
X90690000Y-140380000D03*
X90440000Y-147930000D03*
X90190000Y-140380000D03*
X89940000Y-147930000D03*
X89690000Y-140380000D03*
X89440000Y-147930000D03*
X89190000Y-140380000D03*
X88940000Y-147930000D03*
X88690000Y-140380000D03*
X88440000Y-147930000D03*
X88190000Y-140380000D03*
X87940000Y-147930000D03*
X87690000Y-140380000D03*
X87440000Y-147930000D03*
X87190000Y-140380000D03*
X86940000Y-147930000D03*
X86690000Y-140380000D03*
X86440000Y-147930000D03*
X86190000Y-140380000D03*
X85940000Y-147930000D03*
X85690000Y-140380000D03*
X85440000Y-147930000D03*
X85190000Y-140380000D03*
X84940000Y-147930000D03*
X84690000Y-140380000D03*
X84440000Y-147930000D03*
X84190000Y-140380000D03*
X83940000Y-147930000D03*
X83690000Y-140380000D03*
X83440000Y-147930000D03*
X83190000Y-140380000D03*
X82940000Y-147930000D03*
X82690000Y-140380000D03*
X82440000Y-147930000D03*
X82190000Y-140380000D03*
X81940000Y-147930000D03*
X81690000Y-140380000D03*
X81440000Y-147930000D03*
%TD*%
D21*
%TO.C,R77*%
X77870000Y-159530000D03*
X77870000Y-160550000D03*
%TD*%
D26*
%TO.C,R131*%
X116440000Y-136400000D03*
X116440000Y-135380000D03*
%TD*%
D60*
%TO.C,R86*%
X155880000Y-149197000D03*
X154860000Y-149197000D03*
%TD*%
%TO.C,R218*%
X154800000Y-192690000D03*
X153780000Y-192690000D03*
%TD*%
D26*
%TO.C,R145*%
X149610000Y-131721527D03*
X149610000Y-130701527D03*
%TD*%
D51*
%TO.C,R50*%
X79775000Y-178660000D03*
X81425000Y-178660000D03*
%TD*%
D80*
%TO.C,TVS10*%
X170222500Y-191105000D03*
X170222500Y-191805000D03*
%TD*%
D133*
%TO.C,MOD1*%
X179720703Y-122979998D03*
D134*
X179707453Y-121880000D03*
D134*
X179707453Y-120780000D03*
X179707453Y-119680000D03*
D134*
X179707453Y-118579999D03*
D134*
X179707453Y-117479999D03*
D135*
X179707453Y-116380001D03*
D134*
X179707453Y-113380001D03*
D134*
X179707453Y-112280000D03*
D134*
X179707453Y-111180000D03*
D134*
X179707453Y-110080000D03*
D134*
X179707453Y-108979999D03*
D136*
X166308953Y-108979999D03*
D136*
X166308953Y-110080000D03*
D136*
X166308953Y-111180000D03*
D136*
X166308953Y-112280000D03*
X166308953Y-113380001D03*
D137*
X166308953Y-116380001D03*
D136*
X166308953Y-117479999D03*
D136*
X166308953Y-118579999D03*
D136*
X166308953Y-119680000D03*
D136*
X166308953Y-120780000D03*
D136*
X166308953Y-121880000D03*
X166308953Y-122980001D03*
%TD*%
D84*
%TO.C,U18*%
X129930000Y-147510000D03*
X129580000Y-147510000D03*
X129230000Y-147510000D03*
X128880000Y-147510000D03*
X128880000Y-148510000D03*
X129230000Y-148510000D03*
X129580000Y-148510000D03*
X129930000Y-148510000D03*
%TD*%
D26*
%TO.C,R215*%
X140593853Y-189135772D03*
X140593853Y-188115772D03*
%TD*%
%TO.C,R198*%
X120150000Y-152660000D03*
X120150000Y-151640000D03*
%TD*%
D29*
%TO.C,C104*%
X125620000Y-126410000D03*
X125620000Y-125450000D03*
%TD*%
D19*
%TO.C,C8*%
X129925000Y-94120000D03*
X131475000Y-94120000D03*
%TD*%
D60*
%TO.C,R106*%
X141870000Y-125220000D03*
X140850000Y-125220000D03*
%TD*%
D16*
%TO.C,R233*%
X176590000Y-160930000D03*
X177610000Y-160930000D03*
%TD*%
D138*
%TO.C,U7*%
X94640000Y-170590000D03*
X94640000Y-170090000D03*
X94640000Y-169590000D03*
X94640000Y-169090000D03*
D139*
X93890000Y-168340000D03*
X93390000Y-168340000D03*
X92890000Y-168340000D03*
X92390000Y-168340000D03*
D138*
X91640000Y-169090000D03*
X91640000Y-169590000D03*
X91640000Y-170090000D03*
X91640000Y-170590000D03*
D139*
X92390000Y-171340000D03*
X92890000Y-171340000D03*
X93390000Y-171340000D03*
D140*
X93140000Y-169840000D03*
D139*
X93890000Y-171340000D03*
%TD*%
D23*
%TO.C,C143*%
X126847330Y-155869223D03*
X127807330Y-155869223D03*
%TD*%
D21*
%TO.C,R112*%
X129900000Y-123590000D03*
X129900000Y-124610000D03*
%TD*%
D26*
%TO.C,R126*%
X66660000Y-146730000D03*
X66660000Y-145710000D03*
%TD*%
D29*
%TO.C,C140*%
X134760000Y-170100000D03*
X134760000Y-169140000D03*
%TD*%
D60*
%TO.C,R189*%
X139055000Y-170795000D03*
X138035000Y-170795000D03*
%TD*%
D73*
%TO.C,U31*%
X158318507Y-174145000D03*
X158318507Y-175415000D03*
X158318507Y-176685000D03*
X158318507Y-177955000D03*
X163718507Y-177955000D03*
X163718507Y-176685000D03*
X163718507Y-175415000D03*
X163718507Y-174145000D03*
%TD*%
D23*
%TO.C,C137*%
X141215000Y-169105000D03*
X142175000Y-169105000D03*
%TD*%
D84*
%TO.C,U30*%
X153535000Y-190290000D03*
X153185000Y-190290000D03*
X152835000Y-190290000D03*
X152485000Y-190290000D03*
X152485000Y-191290000D03*
X152835000Y-191290000D03*
X153185000Y-191290000D03*
X153535000Y-191290000D03*
%TD*%
D60*
%TO.C,R206*%
X149884235Y-157904071D03*
X148864235Y-157904071D03*
%TD*%
D25*
%TO.C,C123*%
X131590000Y-175810000D03*
X130630000Y-175810000D03*
%TD*%
D75*
%TO.C,Q5*%
X99120000Y-203360000D03*
X99120000Y-202700000D03*
X99120000Y-202040000D03*
X99120000Y-201380000D03*
D76*
X96390000Y-201216000D03*
D77*
X96010000Y-201380000D03*
X96010000Y-202040000D03*
X96010000Y-202700000D03*
D76*
X96390000Y-203524000D03*
D77*
X96010000Y-203360000D03*
D78*
X97127000Y-202370000D03*
%TD*%
D60*
%TO.C,R216*%
X143830000Y-196840000D03*
X142810000Y-196840000D03*
%TD*%
D14*
%TO.C,C40*%
X87150000Y-202780000D03*
X87150000Y-203740000D03*
%TD*%
D51*
%TO.C,R191*%
X138270000Y-169415000D03*
X139920000Y-169415000D03*
%TD*%
D23*
%TO.C,C173*%
X184310000Y-174815000D03*
X185270000Y-174815000D03*
%TD*%
D16*
%TO.C,R71*%
X91050000Y-154200000D03*
X92070000Y-154200000D03*
%TD*%
D14*
%TO.C,C167*%
X163020000Y-167550000D03*
X163020000Y-168510000D03*
%TD*%
D141*
%TO.C,TVS6*%
X126840000Y-115730000D03*
X126140000Y-115730000D03*
%TD*%
D23*
%TO.C,C161*%
X165258507Y-174825000D03*
X166218507Y-174825000D03*
%TD*%
D60*
%TO.C,R48*%
X91850000Y-178815000D03*
X90830000Y-178815000D03*
%TD*%
D65*
%TO.C,C46*%
X81375000Y-180220000D03*
X79825000Y-180220000D03*
%TD*%
D23*
%TO.C,C79*%
X94250000Y-174190000D03*
X95210000Y-174190000D03*
%TD*%
D26*
%TO.C,R231*%
X172400000Y-170760000D03*
X172400000Y-169740000D03*
%TD*%
%TO.C,R178*%
X132610000Y-173490000D03*
X132610000Y-172470000D03*
%TD*%
D142*
%TO.C,J7*%
X138230001Y-198642201D03*
X143829999Y-198642201D03*
D143*
X139530000Y-201112201D03*
X140530001Y-201112201D03*
X141529999Y-201112201D03*
X142530000Y-201112201D03*
%TD*%
D52*
%TO.C,C43*%
X91370000Y-197820000D03*
X91370000Y-195920000D03*
%TD*%
D21*
%TO.C,R75*%
X98760000Y-163810000D03*
X98760000Y-164830000D03*
%TD*%
D23*
%TO.C,C109*%
X66380000Y-104996776D03*
X67340000Y-104996776D03*
%TD*%
D144*
%TO.C,L11*%
X66365000Y-108750000D03*
X67795000Y-108750000D03*
%TD*%
D14*
%TO.C,C144*%
X127780000Y-156815000D03*
X127780000Y-157775000D03*
%TD*%
D26*
%TO.C,R78*%
X95890000Y-168870000D03*
X95890000Y-167850000D03*
%TD*%
D60*
%TO.C,R46*%
X91850000Y-175590000D03*
X90830000Y-175590000D03*
%TD*%
D26*
%TO.C,R133*%
X118480000Y-136400000D03*
X118480000Y-135380000D03*
%TD*%
D145*
%TO.C,U16*%
X132885327Y-174808095D03*
X132885327Y-175308096D03*
X132885327Y-175808096D03*
X132885327Y-176308097D03*
D146*
X133424927Y-176347696D03*
X133924927Y-176347696D03*
D145*
X134464527Y-176308097D03*
X134464527Y-175808096D03*
X134464527Y-175308096D03*
X134464527Y-174808095D03*
D146*
X133924927Y-174768496D03*
X133424927Y-174768496D03*
%TD*%
D60*
%TO.C,R199*%
X119210000Y-152660000D03*
X118190000Y-152660000D03*
%TD*%
D14*
%TO.C,C84*%
X154570000Y-152517000D03*
X154570000Y-153477000D03*
%TD*%
D59*
%TO.C,C74*%
X83360000Y-152660000D03*
X83360000Y-154560000D03*
%TD*%
D147*
%TO.C,U3*%
X89480000Y-196120000D03*
X88980000Y-196120000D03*
X88480000Y-196120000D03*
X87980000Y-196120000D03*
X87480000Y-196120000D03*
X87480000Y-200520000D03*
X87980000Y-200520000D03*
X88480000Y-200520000D03*
X88980000Y-200520000D03*
X89480000Y-200520000D03*
%TD*%
D21*
%TO.C,R143*%
X113380000Y-135380000D03*
X113380000Y-136400000D03*
%TD*%
D49*
%TO.C,LD2*%
X115185000Y-86910000D03*
D50*
X115660000Y-87010000D03*
X116110000Y-87010000D03*
D49*
X116585000Y-86910000D03*
%TD*%
D65*
%TO.C,C32*%
X77895000Y-193218208D03*
X76345000Y-193218208D03*
%TD*%
D15*
%TO.C,C58*%
X95925585Y-155503126D03*
X95925585Y-153953126D03*
%TD*%
D23*
%TO.C,C88*%
X154890000Y-148097000D03*
X155850000Y-148097000D03*
%TD*%
D16*
%TO.C,R237*%
X176590000Y-165530000D03*
X177610000Y-165530000D03*
%TD*%
%TO.C,R148*%
X92090000Y-90060000D03*
X93110000Y-90060000D03*
%TD*%
%TO.C,R192*%
X135750000Y-170150000D03*
X136770000Y-170150000D03*
%TD*%
D21*
%TO.C,R98*%
X149370000Y-150287000D03*
X149370000Y-151307000D03*
%TD*%
D106*
%TO.C,DS1*%
X167352500Y-136081527D03*
X169552500Y-136081527D03*
%TD*%
D60*
%TO.C,R220*%
X157560251Y-163525644D03*
X156540251Y-163525644D03*
%TD*%
D121*
%TO.C,R25*%
X98510000Y-199760000D03*
X96860000Y-199760000D03*
%TD*%
D65*
%TO.C,C59*%
X92745000Y-152940000D03*
X91195000Y-152940000D03*
%TD*%
D26*
%TO.C,R228*%
X169310000Y-170760000D03*
X169310000Y-169740000D03*
%TD*%
%TO.C,R135*%
X112360000Y-136400000D03*
X112360000Y-135380000D03*
%TD*%
D16*
%TO.C,R217*%
X140260000Y-196800000D03*
X141280000Y-196800000D03*
%TD*%
D31*
%TO.C,TVS18*%
X153595000Y-195600000D03*
X154295000Y-195600000D03*
%TD*%
D144*
%TO.C,L12*%
X66415000Y-101324920D03*
X67845000Y-101324920D03*
%TD*%
D21*
%TO.C,R12*%
X119897508Y-98910000D03*
X119897508Y-99930000D03*
%TD*%
D144*
%TO.C,L10*%
X69820000Y-91320000D03*
X68390000Y-91320000D03*
%TD*%
D60*
%TO.C,R94*%
X153780000Y-149197000D03*
X152760000Y-149197000D03*
%TD*%
D29*
%TO.C,C110*%
X148480000Y-129651527D03*
X148480000Y-128691527D03*
%TD*%
D148*
%TO.C,U8*%
X129460000Y-121117500D03*
X130410000Y-121117500D03*
X131360000Y-121117500D03*
X131360000Y-118842500D03*
X129460000Y-118842500D03*
%TD*%
D65*
%TO.C,C80*%
X95515000Y-172850000D03*
X93965000Y-172850000D03*
%TD*%
D26*
%TO.C,R70*%
X92122115Y-156270000D03*
X92122115Y-155250000D03*
%TD*%
%TO.C,R232*%
X173430000Y-170760000D03*
X173430000Y-169740000D03*
%TD*%
D60*
%TO.C,R163*%
X182148203Y-121880000D03*
X181128203Y-121880000D03*
%TD*%
D29*
%TO.C,C5*%
X130225000Y-97400000D03*
X130225000Y-96440000D03*
%TD*%
D22*
%TO.C,TVS8*%
X127080000Y-190570000D03*
X124180000Y-190570000D03*
%TD*%
D26*
%TO.C,R205*%
X150955837Y-185375909D03*
X150955837Y-184355909D03*
%TD*%
D23*
%TO.C,C157*%
X143590000Y-194620000D03*
X144550000Y-194620000D03*
%TD*%
D31*
%TO.C,TVS4*%
X126250000Y-103250000D03*
X125550000Y-103250000D03*
%TD*%
D16*
%TO.C,R238*%
X176590000Y-166680000D03*
X177610000Y-166680000D03*
%TD*%
D28*
%TO.C,C100*%
X112530000Y-88075000D03*
X112530000Y-89625000D03*
%TD*%
D23*
%TO.C,C162*%
X165258507Y-173825000D03*
X166218507Y-173825000D03*
%TD*%
D124*
%TO.C,L8*%
X66400000Y-111155000D03*
X66400000Y-112165000D03*
%TD*%
D14*
%TO.C,C128*%
X133830000Y-148070000D03*
X133830000Y-149030000D03*
%TD*%
D16*
%TO.C,R243*%
X154360251Y-161405644D03*
X155380251Y-161405644D03*
%TD*%
D23*
%TO.C,C130*%
X130870000Y-147510000D03*
X131830000Y-147510000D03*
%TD*%
D16*
%TO.C,R109*%
X96020000Y-135610000D03*
X97040000Y-135610000D03*
%TD*%
%TO.C,R236*%
X176590000Y-164380000D03*
X177610000Y-164380000D03*
%TD*%
D23*
%TO.C,C107*%
X68630000Y-90060000D03*
X69590000Y-90060000D03*
%TD*%
D82*
%TO.C,L4*%
X88880000Y-161045000D03*
X88880000Y-158675000D03*
%TD*%
D75*
%TO.C,Q8*%
X122930000Y-165648500D03*
X122930000Y-166308500D03*
X122930000Y-166968500D03*
X122930000Y-167628500D03*
D76*
X125660000Y-167792500D03*
D77*
X126040000Y-167628500D03*
X126040000Y-166968500D03*
X126040000Y-166308500D03*
D76*
X125660000Y-165484500D03*
D77*
X126040000Y-165648500D03*
D78*
X124923000Y-166638500D03*
%TD*%
D21*
%TO.C,R114*%
X130920000Y-123600000D03*
X130920000Y-124620000D03*
%TD*%
D149*
%TO.C,R79*%
X122897500Y-163632500D03*
X125822500Y-163632500D03*
%TD*%
D23*
%TO.C,C134*%
X131135000Y-167898000D03*
X132095000Y-167898000D03*
%TD*%
D21*
%TO.C,R42*%
X87210000Y-192301626D03*
X87210000Y-193321626D03*
%TD*%
D14*
%TO.C,C120*%
X182188203Y-113410000D03*
X182188203Y-114370000D03*
%TD*%
D21*
%TO.C,R89*%
X167372500Y-131011527D03*
X167372500Y-132031527D03*
%TD*%
D25*
%TO.C,C122*%
X131940000Y-156930000D03*
X130980000Y-156930000D03*
%TD*%
D23*
%TO.C,C168*%
X175800000Y-159500000D03*
X176760000Y-159500000D03*
%TD*%
D15*
%TO.C,C165*%
X160080000Y-169650000D03*
X160080000Y-168100000D03*
%TD*%
D60*
%TO.C,R144*%
X145900000Y-93920000D03*
X144880000Y-93920000D03*
%TD*%
D21*
%TO.C,R200*%
X129480000Y-151570000D03*
X129480000Y-152590000D03*
%TD*%
D26*
%TO.C,R22*%
X84500000Y-196110000D03*
X84500000Y-195090000D03*
%TD*%
%TO.C,R165*%
X185380000Y-98610000D03*
X185380000Y-97590000D03*
%TD*%
D141*
%TO.C,TVS7*%
X127370000Y-117050000D03*
X128070000Y-117050000D03*
%TD*%
D26*
%TO.C,R166*%
X172477672Y-125776720D03*
X172477672Y-124756720D03*
%TD*%
D20*
%TO.C,R69*%
X73720000Y-151465000D03*
X73720000Y-149815000D03*
%TD*%
D14*
%TO.C,C99*%
X90990000Y-150020000D03*
X90990000Y-150980000D03*
%TD*%
D124*
%TO.C,L9*%
X66380000Y-106335000D03*
X66380000Y-107345000D03*
%TD*%
D73*
%TO.C,U32*%
X152820000Y-167110000D03*
X152820000Y-168380000D03*
X152820000Y-169650000D03*
X152820000Y-170920000D03*
X158220000Y-170920000D03*
X158220000Y-169650000D03*
X158220000Y-168380000D03*
X158220000Y-167110000D03*
%TD*%
D16*
%TO.C,R155*%
X180331000Y-102931600D03*
X181351000Y-102931600D03*
%TD*%
D121*
%TO.C,R26*%
X79955000Y-181810000D03*
X78305000Y-181810000D03*
%TD*%
D80*
%TO.C,TVS15*%
X172222500Y-180760000D03*
X172222500Y-180060000D03*
%TD*%
D150*
%TO.C,L13*%
X182681000Y-100706600D03*
X182681000Y-101556600D03*
%TD*%
D26*
%TO.C,R55*%
X88340000Y-193321626D03*
X88340000Y-192301626D03*
%TD*%
D79*
%TO.C,U4*%
X88900000Y-177980000D03*
X88900000Y-177480000D03*
X88900000Y-176980000D03*
X88900000Y-176480000D03*
X88900000Y-175980000D03*
X84500000Y-175980000D03*
X84500000Y-176480000D03*
X84500000Y-176980000D03*
X84500000Y-177480000D03*
X84500000Y-177980000D03*
%TD*%
M02*
