M48
; DRILL file {KiCad 9.0.0} date 2025-07-29T08:56:16+0200
; FORMAT={-:-/ absolute / metric / decimal}
; #@! TF.CreationDate,2025-07-29T08:56:16+02:00
; #@! TF.GenerationSoftware,Kicad,Pcbnew,9.0.0
; #@! TF.FileFunction,Plated,1,4,PTH
FMAT,2
METRIC
; #@! TA.AperFunction,Plated,PTH,ViaDrill
T1C0.200
; #@! TA.AperFunction,Plated,PTH,ViaDrill
T2C0.300
; #@! TA.AperFunction,Plated,PTH,ComponentDrill
T3C0.600
; #@! TA.AperFunction,Plated,PTH,ComponentDrill
T4C0.750
; #@! TA.AperFunction,Plated,PTH,ComponentDrill
T5C0.800
; #@! TA.AperFunction,Plated,PTH,ComponentDrill
T6C1.000
; #@! TA.AperFunction,Plated,PTH,ComponentDrill
T7C1.200
; #@! TA.AperFunction,Plated,PTH,ComponentDrill
T8C1.450
; #@! TA.AperFunction,Plated,PTH,ComponentDrill
T9C1.530
; #@! TA.AperFunction,Plated,PTH,ComponentDrill
T10C1.600
; #@! TA.AperFunction,Plated,PTH,ComponentDrill
T11C1.850
; #@! TA.AperFunction,Plated,PTH,ComponentDrill
T12C3.700
%
G90
G05
T1
X66.31Y-167.089
X66.31Y-167.639
X66.87Y-167.089
X66.87Y-167.639
X67.6Y-172.82
X67.6Y-176.82
X68.365Y-149.865
X68.72Y-110.07
X69.15Y-101.33
X69.15Y-104.99
X69.15Y-108.75
X69.83Y-145.45
X70.59Y-109.55
X70.59Y-115.16
X70.97Y-159.58
X71.06Y-148.83
X71.31Y-155.64
X72.03Y-155.64
X72.07Y-148.82
X73.2Y-153.021
X73.68Y-169.28
X73.975Y-160.815
X74.04Y-174.01
X74.24Y-154.08
X74.28Y-157.08
X74.448Y-158.868
X75.1Y-154.08
X75.1Y-195.72
X75.1Y-203.02
X75.13Y-157.08
X75.67Y-160.86
X76.46Y-148.27
X76.95Y-180.68
X77.007Y-149.943
X77.46Y-142.87
X78.069Y-141.31
X78.47Y-144.84
X78.76Y-194.94
X78.94Y-175.33
X79.14Y-191.85
X79.14Y-194.44
X79.18Y-159.59
X79.22Y-201.19
X79.92Y-139.68
X80.466Y-198.416
X80.466Y-198.826
X80.49Y-199.886
X80.49Y-200.296
X80.65Y-172.72
X80.88Y-198.416
X80.88Y-198.826
X80.904Y-199.886
X80.904Y-200.296
X81.28Y-199.366
X81.539Y-202.48
X81.6Y-172.67
X81.72Y-194.8
X81.91Y-201.98
X81.98Y-196.18
X82.21Y-194.04
X82.98Y-181.96
X83.03Y-195.68
X83.039Y-190.62
X83.161Y-176.021
X83.22Y-138.92
X83.26Y-175.33
X83.37Y-181.3
X83.68Y-141.52
X84.64Y-197.202
X84.64Y-194.583
X84.67Y-170.8
X84.94Y-191.62
X84.941Y-199.201
X85.13Y-202.27
X85.232Y-194.418
X85.36Y-199.76
X85.39Y-168.91
X85.39Y-169.46
X85.41Y-174.09
X85.612Y-200.368
X85.64Y-203.06
X85.95Y-168.91
X85.95Y-169.46
X86.08Y-191.62
X86.19Y-141.49
X86.2Y-203.74
X86.27Y-201.51
X86.66Y-180.32
X86.69Y-187.43
X86.7Y-189.02
X86.7Y-190.62
X86.77Y-174.66
X87.21Y-133.92
X87.218Y-191.62
X87.23Y-201.84
X87.3Y-197.04
X87.94Y-146.79
X87.98Y-197.72
X88.34Y-191.62
X88.48Y-198.91
X88.857Y-146.71
X88.922Y-191.474
X88.94Y-151.62
X89.1Y-180.54
X89.37Y-179.99
X89.457Y-146.71
X89.55Y-153.38
X89.69Y-141.55
X89.94Y-151.8
X90.13Y-162.92
X90.17Y-146.71
X90.176Y-142.05
X90.34Y-152.92
X90.38Y-194.8
X90.64Y-139.332
X90.957Y-146.794
X91.042Y-154.74
X91.24Y-139.34
X91.37Y-194.92
X91.501Y-151.3
X91.64Y-165.44
X91.71Y-141.4
X91.76Y-159.864
X91.92Y-146.77
X91.939Y-150.89
X92.21Y-142.02
X92.24Y-136.66
X92.42Y-159.864
X92.51Y-180.22
X92.52Y-169.23
X92.52Y-170.46
X92.74Y-175.08
X92.86Y-172.22
X92.9Y-154.2
X93.14Y-169.84
X93.263Y-176.077
X93.422Y-150.39
X93.44Y-194.91
X93.53Y-164.87
X93.639Y-157.001
X93.75Y-169.23
X93.75Y-170.46
X93.87Y-134.82
X94.43Y-148.99
X94.46Y-175.77
X94.48Y-158.33
X94.51Y-161.34
X94.62Y-136.96
X94.642Y-141.478
X94.65Y-149.9
X94.83Y-165.28
X95.242Y-141.48
X95.27Y-136.98
X95.34Y-158.33
X95.36Y-161.34
X95.37Y-151.124
X95.51Y-194.93
X95.51Y-198.83
X95.576Y-146.79
X95.89Y-167.06
X95.91Y-199.76
X95.92Y-153.28
X96.2Y-133.26
X96.22Y-133.92
X96.44Y-146.79
X96.74Y-141.69
X97.23Y-141.79
X97.68Y-165.86
X97.7Y-136.64
X97.701Y-136.04
X97.94Y-146.79
X98.29Y-151.17
X98.44Y-146.79
X98.76Y-165.86
X98.94Y-146.79
X99.02Y-136.39
X99.32Y-192.97
X99.34Y-146.2
X99.45Y-146.79
X99.94Y-146.79
X100.13Y-136.36
X100.755Y-205.413
X100.761Y-208.584
X100.82Y-200.94
X100.82Y-203.97
X101.1Y-193.52
X101.2Y-194.22
X102.11Y-183.92
X102.31Y-146.28
X102.62Y-187.71
X103.31Y-184.15
X104.0Y-149.57
X104.55Y-192.98
X105.47Y-146.46
X105.47Y-153.92
X105.736Y-209.594
X106.205Y-196.665
X106.226Y-180.016
X106.53Y-151.89
X106.67Y-152.48
X106.97Y-180.0
X107.04Y-150.023
X107.68Y-186.35
X107.69Y-187.0
X107.7Y-172.11
X108.473Y-172.16
X108.7Y-196.67
X109.155Y-180.145
X109.23Y-175.42
X109.247Y-172.18
X109.61Y-88.049
X109.61Y-88.741
X109.61Y-89.432
X109.61Y-102.149
X109.61Y-102.841
X109.61Y-103.532
X110.01Y-176.07
X110.02Y-172.18
X110.41Y-88.032
X110.41Y-88.724
X110.41Y-89.416
X110.41Y-102.149
X110.41Y-102.841
X110.41Y-103.532
X111.21Y-88.032
X111.21Y-88.724
X111.21Y-89.416
X111.21Y-102.132
X111.21Y-102.824
X111.21Y-103.516
X112.04Y-141.62
X112.33Y-152.46
X112.36Y-136.99
X112.38Y-134.12
X112.41Y-141.066
X112.53Y-87.22
X112.61Y-142.31
X112.791Y-145.54
X113.23Y-142.83
X113.397Y-134.593
X113.697Y-132.243
X113.718Y-143.33
X114.058Y-158.722
X114.06Y-151.4
X114.387Y-132.103
X114.4Y-136.99
X114.52Y-90.43
X114.556Y-143.632
X115.007Y-130.513
X115.007Y-134.27
X115.01Y-87.49
X115.62Y-109.0
X115.643Y-134.171
X116.167Y-130.473
X116.257Y-134.31
X116.322Y-132.078
X116.44Y-136.99
X116.754Y-90.682
X117.077Y-134.223
X117.5Y-108.02
X117.6Y-101.137
X117.6Y-101.828
X117.6Y-102.52
X118.067Y-117.273
X118.217Y-108.02
X118.31Y-90.56
X118.367Y-130.453
X118.48Y-136.99
X118.6Y-101.12
X118.6Y-101.812
X118.6Y-102.503
X118.908Y-108.02
X119.03Y-154.998
X119.21Y-154.22
X119.4Y-95.133
X119.43Y-151.78
X119.51Y-134.723
X119.6Y-108.02
X119.617Y-107.42
X119.75Y-160.995
X119.75Y-170.69
X119.97Y-98.34
X120.15Y-149.351
X120.29Y-90.56
X120.292Y-108.02
X120.308Y-107.42
X120.4Y-95.02
X120.52Y-136.99
X120.61Y-100.61
X121.004Y-94.3
X121.605Y-91.87
X121.652Y-154.998
X122.2Y-97.42
X122.2Y-98.12
X122.2Y-98.62
X122.2Y-99.17
X122.2Y-99.72
X122.5Y-101.66
X122.5Y-102.15
X122.505Y-102.71
X123.192Y-101.66
X123.192Y-102.15
X123.197Y-102.71
X123.883Y-102.15
X123.888Y-102.71
X123.89Y-99.785
X123.925Y-97.26
X124.2Y-91.92
X124.575Y-102.15
X124.58Y-102.71
X124.71Y-153.39
X125.0Y-96.15
X125.0Y-97.26
X125.0Y-98.375
X125.0Y-99.785
X125.1Y-103.25
X125.425Y-102.15
X125.7Y-91.92
X125.83Y-148.71
X126.02Y-152.39
X126.075Y-97.26
X126.1Y-99.785
X126.117Y-102.15
X126.14Y-114.82
X126.6Y-94.42
X126.8Y-107.5
X126.8Y-111.75
X126.808Y-101.66
X126.808Y-102.15
X127.23Y-149.73
X127.4Y-111.75
X127.402Y-107.502
X127.49Y-153.35
X127.5Y-101.66
X127.5Y-102.15
X127.67Y-150.26
X127.78Y-158.28
X127.8Y-155.27
X127.9Y-97.2
X127.9Y-98.015
X127.9Y-145.7
X127.945Y-176.775
X128.07Y-116.12
X128.125Y-111.625
X128.17Y-125.14
X128.18Y-119.97
X128.25Y-170.25
X128.3Y-156.81
X128.45Y-148.51
X128.46Y-91.88
X128.6Y-96.21
X128.6Y-96.705
X128.6Y-97.2
X128.6Y-98.015
X128.6Y-98.51
X128.6Y-99.005
X128.79Y-145.66
X128.81Y-159.7
X128.91Y-122.77
X129.0Y-152.59
X129.063Y-175.49
X129.282Y-145.236
X129.3Y-96.21
X129.3Y-96.705
X129.3Y-97.2
X129.3Y-98.015
X129.3Y-98.51
X129.3Y-99.005
X129.46Y-117.44
X129.676Y-126.456
X130.0Y-99.17
X130.0Y-99.82
X130.0Y-100.47
X130.06Y-176.05
X130.075Y-113.46
X130.41Y-119.97
X130.46Y-159.368
X130.465Y-158.313
X130.49Y-153.35
X130.6Y-178.47
X130.87Y-145.24
X130.98Y-156.21
X131.04Y-154.81
X131.27Y-150.27
X131.63Y-170.6
X131.96Y-149.37
X131.98Y-122.77
X132.28Y-152.68
X132.6Y-103.52
X132.66Y-119.97
X132.692Y-171.28
X132.86Y-150.91
X132.98Y-125.24
X133.075Y-168.573
X133.34Y-149.03
X133.449Y-151.94
X133.545Y-160.92
X133.62Y-101.7
X133.85Y-99.27
X133.85Y-100.27
X134.01Y-124.21
X134.01Y-169.14
X134.025Y-168.563
X134.8Y-181.11
X134.97Y-156.55
X135.01Y-145.28
X135.19Y-173.71
X135.29Y-158.86
X135.585Y-102.495
X135.59Y-103.52
X135.655Y-87.721
X135.79Y-187.46
X135.8Y-116.21
X135.8Y-133.87
X135.8Y-139.5
X135.8Y-185.53
X136.2Y-153.28
X136.25Y-158.92
X136.4Y-133.87
X136.4Y-139.45
X137.1Y-133.87
X137.1Y-139.45
X137.4Y-87.72
X137.488Y-175.76
X137.78Y-176.3
X137.79Y-151.35
X138.15Y-158.04
X138.43Y-131.98
X138.492Y-96.328
X139.06Y-173.82
X139.298Y-151.96
X139.91Y-173.54
X140.033Y-167.45
X140.033Y-170.46
X140.075Y-92.545
X140.08Y-149.24
X140.53Y-124.21
X140.7Y-187.48
X141.01Y-194.67
X141.56Y-153.28
X141.75Y-151.37
X141.82Y-155.46
X141.86Y-193.65
X141.87Y-123.73
X142.13Y-189.96
X142.694Y-186.66
X142.79Y-91.01
X143.08Y-191.62
X143.19Y-194.67
X143.58Y-186.0
X143.759Y-193.08
X143.78Y-100.02
X144.08Y-185.99
X144.17Y-98.25
X144.45Y-196.71
X144.89Y-93.12
X145.78Y-132.0
X145.88Y-188.68
X146.14Y-159.96
X146.17Y-189.66
X146.2Y-186.97
X146.29Y-194.62
X147.62Y-131.152
X147.97Y-147.03
X147.97Y-159.16
X147.97Y-185.38
X148.45Y-132.492
X148.48Y-127.922
X148.914Y-154.794
X149.37Y-149.492
X149.37Y-154.322
X149.39Y-95.62
X149.39Y-96.97
X149.39Y-98.32
X149.61Y-132.522
X149.63Y-127.922
X150.08Y-154.412
X150.39Y-95.62
X150.39Y-96.97
X150.39Y-98.32
X150.591Y-190.281
X150.73Y-191.03
X150.99Y-149.992
X151.17Y-172.555
X151.39Y-95.62
X151.39Y-96.97
X151.39Y-98.32
X151.42Y-194.78
X151.76Y-165.78
X151.986Y-181.776
X152.374Y-159.242
X152.58Y-189.31
X153.18Y-188.96
X153.498Y-127.814
X153.567Y-186.627
X153.651Y-163.551
X153.83Y-150.002
X154.136Y-187.914
X154.3Y-194.78
X154.523Y-191.947
X154.78Y-157.46
X155.06Y-127.802
X155.06Y-131.012
X155.13Y-159.23
X155.13Y-166.4
X155.246Y-181.776
X155.61Y-192.69
X155.73Y-160.38
X155.74Y-163.13
X155.82Y-159.43
X156.0Y-165.83
X156.01Y-129.962
X156.07Y-130.572
X156.32Y-131.222
X156.35Y-190.28
X156.37Y-127.012
X156.39Y-191.28
X156.55Y-162.97
X157.19Y-183.9
X157.19Y-184.92
X157.31Y-127.012
X157.55Y-162.97
X158.31Y-179.25
X158.32Y-159.42
X158.32Y-160.386
X159.005Y-132.907
X159.21Y-127.722
X159.27Y-128.692
X159.55Y-176.69
X159.59Y-163.94
X159.6Y-163.32
X159.69Y-129.932
X159.69Y-130.682
X160.09Y-166.965
X161.95Y-158.62
X161.96Y-159.693
X161.99Y-161.84
X162.0Y-160.767
X163.19Y-116.38
X163.2Y-117.46
X164.222Y-192.73
X165.259Y-175.52
X165.713Y-192.7
X166.219Y-175.52
X167.64Y-179.23
X168.172Y-132.222
X168.22Y-179.28
X168.232Y-192.66
X169.28Y-188.28
X169.32Y-183.58
X170.202Y-179.26
X170.222Y-192.65
X170.873Y-132.222
X171.26Y-119.69
X171.458Y-126.42
X171.47Y-128.392
X171.79Y-177.95
X172.1Y-133.202
X172.183Y-179.25
X172.222Y-192.62
X172.478Y-126.54
X173.077Y-119.917
X173.57Y-126.548
X173.93Y-188.27
X174.6Y-126.418
X174.79Y-175.46
X175.75Y-175.48
X175.88Y-176.8
X177.3Y-178.98
X178.54Y-160.92
X178.54Y-162.11
X178.54Y-163.23
X178.54Y-164.38
X178.54Y-165.53
X178.54Y-166.68
X179.461Y-102.932
X180.941Y-106.812
X181.14Y-115.17
X181.17Y-117.88
X181.18Y-165.26
X181.911Y-103.852
X182.148Y-121.21
X182.161Y-104.622
X182.188Y-115.168
X182.2Y-117.92
X182.471Y-104.072
X182.585Y-106.672
X183.256Y-102.352
X183.271Y-106.642
X183.67Y-96.18
X184.31Y-175.65
X184.651Y-107.252
X185.27Y-175.63
X185.391Y-103.812
T2
X67.23Y-140.05
X68.35Y-148.33
X72.58Y-196.596
X72.58Y-202.141
X73.16Y-193.03
X73.494Y-196.596
X73.494Y-202.141
X74.407Y-196.596
X74.407Y-202.141
X75.22Y-190.018
X75.22Y-191.618
X75.22Y-193.218
X75.22Y-194.818
X76.345Y-197.865
X77.85Y-162.03
X77.85Y-163.2
X78.71Y-162.03
X78.71Y-163.2
X79.2Y-203.82
X79.21Y-149.65
X79.57Y-162.03
X79.57Y-163.2
X79.895Y-207.27
X79.9Y-209.819
X79.95Y-155.64
X80.05Y-149.65
X80.4Y-188.56
X80.4Y-189.375
X80.4Y-190.19
X80.43Y-162.03
X80.43Y-163.2
X81.7Y-198.83
X81.7Y-199.92
X81.72Y-188.56
X81.72Y-190.19
X81.73Y-189.375
X82.05Y-155.64
X82.2Y-199.386
X82.935Y-150.92
X84.14Y-155.64
X84.94Y-150.92
X85.48Y-183.17
X86.34Y-155.64
X86.52Y-185.88
X86.945Y-150.92
X88.05Y-173.31
X88.14Y-168.2
X88.14Y-169.07
X88.95Y-173.31
X89.21Y-168.2
X89.21Y-169.07
X89.85Y-173.31
X90.28Y-168.2
X90.28Y-169.07
X90.75Y-173.31
X91.65Y-173.31
X92.69Y-166.67
X93.6Y-166.67
X96.72Y-174.73
X96.72Y-175.72
X98.275Y-174.73
X98.275Y-175.72
X98.62Y-142.84
X99.35Y-142.85
X99.83Y-174.73
X99.83Y-175.72
X100.07Y-163.83
X100.07Y-164.78
X100.15Y-159.87
X101.52Y-163.83
X101.52Y-164.78
X101.645Y-159.87
X102.32Y-155.81
X103.14Y-159.87
X104.275Y-155.81
X104.635Y-159.87
X106.13Y-159.87
X106.23Y-155.81
X108.36Y-201.55
X108.36Y-202.35
X108.36Y-203.15
X108.36Y-206.16
X108.36Y-206.96
X108.36Y-207.76
X109.15Y-201.55
X109.15Y-202.35
X109.15Y-203.15
X109.15Y-206.16
X109.15Y-206.96
X109.15Y-207.76
X109.94Y-201.55
X109.94Y-202.35
X109.94Y-203.15
X109.94Y-206.16
X109.94Y-206.96
X109.94Y-207.76
X112.82Y-126.073
X114.32Y-167.74
X114.32Y-168.73
X115.237Y-114.683
X115.875Y-167.74
X115.875Y-168.73
X116.17Y-127.12
X117.43Y-167.74
X117.43Y-168.73
X117.66Y-177.39
X117.66Y-178.205
X117.66Y-179.02
X118.98Y-177.39
X118.98Y-179.02
X118.99Y-178.205
X119.0Y-100.22
X119.057Y-114.683
X120.05Y-113.94
X120.657Y-126.073
X120.68Y-163.58
X120.68Y-164.503
X120.68Y-165.427
X120.68Y-166.35
X122.6Y-133.55
X122.63Y-146.55
X122.63Y-147.67
X123.62Y-146.55
X123.62Y-147.67
X124.07Y-177.39
X124.07Y-178.205
X124.07Y-179.02
X124.34Y-104.72
X124.63Y-146.55
X124.63Y-147.67
X125.39Y-177.39
X125.39Y-179.02
X125.4Y-178.205
X125.61Y-130.62
X125.62Y-124.67
X125.62Y-127.1
X125.7Y-110.82
X125.86Y-107.11
X125.86Y-108.11
X127.1Y-127.12
X127.38Y-131.41
X127.786Y-194.906
X127.8Y-193.595
X127.8Y-194.245
X128.35Y-107.11
X128.35Y-108.11
X128.36Y-163.56
X128.36Y-164.627
X128.36Y-165.693
X128.36Y-166.76
X128.4Y-195.395
X128.6Y-189.42
X129.85Y-107.11
X129.85Y-108.11
X132.6Y-93.32
X133.9Y-95.575
X134.15Y-114.01
X135.075Y-91.645
X138.79Y-202.97
X139.39Y-202.37
X140.52Y-202.27
X140.52Y-202.88
X142.99Y-180.1
X144.265Y-180.1
X145.42Y-94.67
X145.54Y-180.1
X148.18Y-195.87
X149.75Y-190.73
X151.0Y-171.08
X151.02Y-167.265
X155.19Y-96.02
X155.58Y-195.85
X156.25Y-156.092
X156.6Y-195.85
X156.69Y-96.52
X157.55Y-156.092
X157.67Y-146.66
X157.67Y-147.59
X158.015Y-94.045
X158.85Y-156.092
X159.262Y-191.49
X159.51Y-146.66
X159.51Y-147.59
X159.83Y-123.77
X160.15Y-156.092
X160.69Y-123.775
X161.585Y-122.225
X161.67Y-168.74
X161.91Y-121.475
X162.455Y-122.225
X162.472Y-133.322
X162.472Y-134.222
X162.772Y-125.522
X162.772Y-126.822
X163.44Y-165.14
X163.873Y-133.322
X163.873Y-134.222
X164.19Y-153.94
X164.222Y-180.89
X164.572Y-125.522
X164.572Y-126.822
X164.79Y-156.96
X164.83Y-168.51
X165.125Y-150.075
X165.21Y-108.96
X166.63Y-165.39
X167.29Y-165.39
X167.82Y-126.63
X167.93Y-157.84
X168.51Y-120.78
X168.59Y-165.4
X169.58Y-134.842
X171.19Y-161.38
X172.25Y-149.11
X173.03Y-136.09
X173.12Y-161.39
X173.8Y-158.35
X174.44Y-158.35
X176.43Y-157.84
X177.84Y-159.5
X179.155Y-150.075
X179.46Y-156.96
X180.09Y-153.63
X180.62Y-108.98
X180.8Y-111.18
X181.18Y-116.37
X182.93Y-135.37
X182.93Y-136.215
X182.93Y-137.06
T4
X125.53Y-199.0
X127.53Y-199.0
T5
X147.11Y-105.49
X147.11Y-109.49
X150.61Y-105.49
X150.61Y-109.49
X154.11Y-105.49
X154.11Y-109.49
T6
X100.66Y-196.62
X103.2Y-196.62
T7
X148.86Y-107.49
X152.36Y-107.49
T8
X112.645Y-195.82
X117.645Y-195.82
T9
X123.0Y-106.14
X123.0Y-109.08
X131.2Y-106.14
X131.2Y-109.08
T10
X142.76Y-107.49
X158.46Y-107.49
T11
X142.167Y-115.773
X145.4Y-120.216
X150.626Y-121.91
X155.85Y-120.209
T12
X90.81Y-102.03
T3
G00X171.33Y-201.7
M15
G01X171.33Y-202.9
M16
G05
G00X174.83Y-201.7
M15
G01X174.83Y-202.9
M16
G05
G00X178.83Y-201.7
M15
G01X178.83Y-202.9
M16
G05
M30
