<?xml version="1.0" encoding="UTF-8"?>
<svg width="79px" height="85px" viewBox="0 0 79 85" version="1.1" xmlns="http://www.w3.org/2000/svg" xmlns:xlink="http://www.w3.org/1999/xlink">
    <!-- Generator: Sketch 46.2 (44496) - http://www.bohemiancoding.com/sketch -->
    <title>particulate</title>
    <desc>Created with Sketch.</desc>
    <defs>
        <polyline id="path-1" points="40 0 40 8.59098008 40 15.6862582 40 42.9366369"></polyline>
    </defs>
    <g id="website" stroke="none" stroke-width="1" fill="none" fill-rule="evenodd" stroke-linecap="round">
        <g id="icons" transform="translate(-93.000000, -218.000000)">
            <g id="particulate" transform="translate(93.000000, 220.000000)">
                <g id="Group-3" transform="translate(1.000000, 2.000000)" stroke="#8cc63e" stroke-width="1.4">
                    <path d="M5.52264049,19.4862515 L0.68134055,24.6731445" id="Line-2-Copy-9"></path>
                    <path d="M14.1001083,43.5 L10.9298246,49.8422781" id="Line-2"></path>
                    <path d="M20.0526316,5.90882751 L24.122674,0.1" id="Line-2"></path>
                    <path d="M74.9495598,50.1144296 L74.910336,57.2012814" id="Line-2"></path>
                    <path d="M64.231572,26.3713939 L64.48546,33.4538273" id="Line-2-Copy-10"></path>
                    <path d="M49.1748075,75.8461826 L42.8934838,79.1578291" id="Line-2-Copy-4" transform="translate(46.034146, 77.502006) rotate(68.000000) translate(-46.034146, -77.502006) "></path>
                    <path d="M55.7973834,5.82231039 L61.3784452,1.43684626" id="Line-2"></path>
                </g>
                <g id="Group" transform="translate(0.000000, 9.000000)" stroke="#8cc63e" stroke-width="1.4">
                    <path d="M8.77192982,1.15 L15.4385965,3.6" id="Line-2"></path>
                    <path d="M13.1626449,9.9 L15.4385965,16.6134873" id="Line-2"></path>
                    <path d="M1.40350877,32.3 L8.12653245,34.5916512" id="Line-2-Copy-8"></path>
                    <path d="M22.857247,7.9013544 L29.9450204,7.41213288" id="Line-2"></path>
                    <path d="M65.144735,39.0370274 L62.1985085,45.4859107" id="Line-2"></path>
                    <path d="M55.4265276,5.43000822 L61.0972105,9.69954421" id="Line-2"></path>
                    <path d="M67.3684211,9.2 L70.3661548,15.6252213" id="Line-2"></path>
                    <path d="M77.9407247,14.1 L77.1929825,21.1476006" id="Line-2"></path>
                    <path d="M12.3830396,54.8824776 L6.21601093,51.3635742" id="Line-2"></path>
                    <path d="M1.44949664,43.5 L0.701754386,50.5476006" id="Line-2"></path>
                    <path d="M76.3424672,34.4189034 L70.1754386,30.9" id="Line-2"></path>
                    <path d="M70.5788765,58.9 L69.4736842,65.9006892" id="Line-2"></path>
                    <path d="M23.1698887,63.1 L16.8421053,66.3224386" id="Line-2"></path>
                    <path d="M31.6415572,63.8866847 L31.5789474,56.8" id="Line-2"></path>
                    <path d="M33.0173903,70.9578634 L25.9649123,70.1" id="Line-2-Copy-6"></path>
                    <path d="M45.978093,57.5 L40.7017544,62.2459746" id="Line-2"></path>
                    <path d="M56.1629444,56.5016441 L49.8245614,53.3" id="Line-2"></path>
                    <path d="M60.6905132,67.0532723 L55.3318329,62.4" id="Line-2-Copy-5" transform="translate(58.011173, 64.726636) rotate(68.000000) translate(-58.011173, -64.726636) "></path>
                    <path d="M48.4210526,1.37523036 L48.516981,8.46154419" id="Line-2"></path>
                    <path d="M16.2239822,20.7291864 L23.2236646,19.5150541" id="Line-2"></path>
                </g>
                <g id="Group-2" transform="translate(8.000000, 7.000000)" stroke="#8cc63e" stroke-width="1.4">
                    <path d="M1.8245614,25.2 L4.78098009,31.6442405" id="Line-2"></path>
                    <path d="M28.3864437,1.54350453 L21.4379847,0.0653229763" id="Line-2-Copy-7"></path>
                    <path d="M59.7364881,54.2749748 L52.855253,56.0385125" id="Line-2"></path>
                    <path d="M1.85307054,63.7 L0.392543494,70.6355975" id="Line-2"></path>
                    <path d="M48.7139709,16.89413 L43.2461912,21.4193572" id="Line-2"></path>
                    <path d="M57.9649123,3.10969133 L64.8600392,4.81838727" id="Line-2"></path>
                    <path d="M9.54385965,51.1 L14.8873596,55.7706096" id="Line-2"></path>
                </g>
                <path d="M40,42 L40,57" id="Line-3" stroke="#404040" stroke-width="1.4"></path>
                <polyline id="Line-4" stroke="#404040" stroke-width="1.4" points="22 43 54.1486612 43 59.3823018 43 64 43"></polyline>
                <path d="M27,40.9552778 L58,41.0447222" id="Line-4" stroke="#404040" stroke-width="1.4" transform="translate(42.500000, 41.000000) rotate(-30.000000) translate(-42.500000, -41.000000) "></path>
                <path d="M32,58 L45,33" id="Line-4" stroke="#404040" stroke-width="1.4"></path>
                <path d="M23,41.1000884 L52,40.8999116" id="Line-4" stroke="#404040" stroke-width="1.4" transform="translate(37.500000, 41.000000) scale(-1, 1) rotate(-30.000000) translate(-37.500000, -41.000000) "></path>
                <polyline id="Line-4" stroke="#404040" stroke-width="1.4" transform="translate(38.000000, 39.000000) scale(-1, 1) translate(-38.000000, -39.000000) " points="29 56 39.9880938 35.2447117 42.3931659 30.7017977 47 22"></polyline>
                <g id="Line-3">
                    <use stroke="#FFFFFF" stroke-width="2.5" xlink:href="#path-1"></use>
                    <use stroke="#404040" stroke-width="1.4" xlink:href="#path-1"></use>
                </g>
            </g>
        </g>
    </g>
</svg>